<svg width="75" height="8" viewBox="0 0 75 8" fill="none" xmlns="http://www.w3.org/2000/svg">
<path d="M71.7678 7.69398C71.3634 8.10201 70.7078 8.10201 70.3034 7.69398C69.899 7.28595 69.899 6.62441 70.3034 6.21638L73.2323 3.26119C73.6367 2.85316 74.2923 2.85316 74.6967 3.26119C75.1011 3.66922 75.1011 4.33076 74.6967 4.73879L71.7678 7.69398Z" fill="#AB4A46"/>
<path d="M70.3033 1.78362C69.8989 1.37559 69.8989 0.714047 70.3033 0.30602C70.7077 -0.102007 71.3633 -0.102007 71.7677 0.30602L74.6967 3.26119C75.1011 3.66922 75.1011 4.33076 74.6967 4.73879C74.2923 5.14681 73.6366 5.14684 73.2322 4.73881L70.3033 1.78362Z" fill="#AB4A46"/>
<rect y="3" width="73" height="2" rx="1" fill="#AB4A46"/>
</svg>
