<svg width="49" height="48" viewBox="0 0 49 48" fill="none" xmlns="http://www.w3.org/2000/svg">
<path d="M24.2399 13.4267C23.8661 13.7929 23.3637 13.998 22.8404 13.998H15.7249C14.0058 13.998 12.4725 15.05 11.8865 16.63L4.20988 37.314C3.93833 38.044 4.12413 38.862 4.68354 39.412C5.0159 39.7376 5.5476 39.7376 5.87996 39.412L18.2812 27.2638C18.3526 27.1939 18.377 27.098 18.377 26.998C18.377 25.342 19.749 23.998 21.4395 23.998C23.13 23.998 24.502 25.342 24.502 26.998C24.502 28.654 23.13 29.998 21.4395 29.998C21.3373 29.998 21.2389 30.0225 21.1658 30.0941L8.76688 42.24C8.43851 42.5617 8.43851 43.0903 8.76688 43.412C9.15479 43.794 9.67746 43.998 10.2103 43.998C10.4431 43.998 10.6799 43.958 10.9086 43.876L32.0235 36.354C33.6364 35.78 34.7103 34.278 34.7103 32.594V25.6648C34.7103 25.1271 34.9269 24.612 35.3111 24.2358L37.3324 22.2567C38.1334 21.4725 38.1335 20.1833 37.3328 19.3989L29.1376 11.371C28.36 10.6093 27.1161 10.6093 26.3385 11.371L24.2399 13.4267Z" fill="white"/>
<path d="M42.1388 16.7225C41.3498 17.4955 40.0704 17.4955 39.2814 16.7225L31.9307 9.52158C31.1417 8.74861 31.1417 7.4954 31.9308 6.72246L33.4044 5.27896C34.1935 4.50602 35.4728 4.50604 36.2618 5.27901L43.6125 12.4799C44.4015 13.2529 44.4015 14.5061 43.6124 15.279L42.1388 16.7225Z" fill="white"/>
</svg>
