<svg width="49" height="48" viewBox="0 0 49 48" fill="none" xmlns="http://www.w3.org/2000/svg">
<g clip-path="url(#clip0_1_1408)">
<path d="M2.0417 11.7419C1.35942 11.9708 0.899658 12.6099 0.899658 13.3296C0.899658 14.0325 1.33866 14.6607 1.99879 14.9022L26.0971 23.7209C26.5861 23.8999 27.1256 23.8811 27.601 23.6684L47.1035 14.9456C47.7095 14.6745 48.0997 14.0726 48.0997 13.4087C48.0997 12.6505 47.5929 11.9859 46.8617 11.7852L22.7273 5.16129C22.3442 5.05615 21.9385 5.06747 21.5619 5.19381L2.0417 11.7419Z" fill="white"/>
<path d="M8.45905 22.8969C7.16202 22.4567 5.81628 23.4211 5.81628 24.7908V31.4894V32.1229C5.81628 35.9684 15.1387 41.3584 26.7865 40.9812C36.1066 40.6823 42.1321 36.3029 43.0967 32.7563C43.1527 32.5451 43.1829 32.334 43.1829 32.1205V31.4894V25.0484C43.1829 23.6086 41.7074 22.6405 40.3866 23.2138L27.4947 28.8097C27.039 29.0075 26.5259 29.0286 26.0555 28.8689L17.7793 26.0595C16.4822 25.6192 15.1364 26.5836 15.1364 27.9534V31.1105C15.1364 31.922 14.3275 32.4849 13.5665 32.2029C13.1096 32.0336 12.8064 31.5978 12.8064 31.1105V25.8056C12.8064 24.9488 12.2605 24.1871 11.4491 23.9117L8.45905 22.8969Z" fill="white"/>
</g>
<defs>
<clipPath id="clip0_1_1408">
<rect width="47.2" height="48" fill="white" transform="translate(0.899658)"/>
</clipPath>
</defs>
</svg>
