<svg width="44" height="39" viewBox="0 0 44 39" fill="none" xmlns="http://www.w3.org/2000/svg">
<path d="M21.6902 0C9.88557 0 0.281738 7.178 0.281738 16C0.281738 21.4571 3.85715 26.386 9.78598 29.3162C10.5041 29.6711 10.986 30.3877 10.986 31.1888V36.1572C10.986 37.7755 12.8079 38.7237 14.1334 37.7953L21.9239 32.3381C22.2462 32.1124 22.6295 31.9886 23.0225 31.9705C34.2085 31.4544 43.0986 24.4877 43.0986 16C43.0986 7.178 33.4948 0 21.6902 0ZM16.3381 18C14.5655 18 13.1268 16.658 13.1268 15C13.1268 13.342 14.5655 12 16.3381 12C18.1107 12 19.5493 13.342 19.5493 15C19.5493 16.658 18.1107 18 16.3381 18ZM27.0423 18C25.2697 18 23.831 16.658 23.831 15C23.831 13.342 25.2697 12 27.0423 12C28.8149 12 30.2536 13.342 30.2536 15C30.2536 16.658 28.8149 18 27.0423 18Z" fill="white"/>
</svg>
