<svg width="24" height="24" viewBox="0 0 24 24" fill="none" xmlns="http://www.w3.org/2000/svg">
<path d="M12 5C4.36704 5 2.07304 11.617 2.05204 11.684V11.684C1.98331 11.8889 1.98289 12.1109 2.05105 12.316V12.316C2.07305 12.383 4.36704 19 12 19C19.633 19 21.927 12.383 21.948 12.316V12.316C22.0168 12.1111 22.0172 11.8891 21.949 11.684V11.684C21.927 11.617 19.633 5 12 5ZM12 16C9.79404 16 8.00004 14.206 8.00004 12C8.00004 9.794 9.79404 8 12 8C14.206 8 16 9.794 16 12C16 14.206 14.206 16 12 16Z" fill="#BBBBBB"/>
<path d="M12 10C10.916 10 10 10.916 10 12C10 13.084 10.916 14 12 14C13.084 14 14 13.084 14 12C14 10.916 13.084 10 12 10Z" fill="#BBBBBB"/>
</svg>
