<svg width="45" height="45" viewBox="0 0 45 45" fill="none" xmlns="http://www.w3.org/2000/svg">
<path d="M2.83717 4.8479H13.5993C14.3041 4.8479 14.9552 5.2244 15.3069 5.83517L17.0782 8.2549C17.4299 8.86567 18.081 9.24217 18.7857 9.24217H44.9999V36.8686C44.9999 38.3195 43.8236 39.4958 42.3727 39.4958H2.6272C1.17628 39.4958 0 38.3195 0 36.8686V12.3068C0 10.276 0.313746 8.2574 0.930187 6.32246C1.15601 5.45406 1.93994 4.8479 2.83717 4.8479Z" fill="#F6C358"/>
<path d="M38.6847 8.78979H4.09473V23.4016H38.6847V8.78979Z" fill="#EBF0F3"/>
<path d="M43.0296 6.16101H32.1844C31.4131 6.16101 30.7127 6.61102 30.3922 7.3125L28.5364 11.3741C28.2158 12.0756 27.5155 12.5256 26.7442 12.5256H0V37.5248C0 38.9758 1.17628 40.152 2.6272 40.152H42.3728C43.8237 40.152 45 38.9758 45 37.5248V8.13141C45 7.04325 44.1178 6.16101 43.0296 6.16101Z" fill="#FCD462"/>
</svg>
