<svg width="46" height="44" viewBox="0 0 46 44" fill="none" xmlns="http://www.w3.org/2000/svg">
<path d="M32.1786 0.989886L3.22808 8.23682C0.947189 8.80777 -0.410695 11.005 0.200468 13.1358L7.95775 40.1817C8.56891 42.3126 10.9208 43.5811 13.2017 43.0101L42.1523 35.7632C44.4332 35.1923 45.7911 32.9951 45.1799 30.8642L37.4226 3.81831C36.8115 1.68748 34.4595 0.418931 32.1786 0.989886ZM17.4661 34.6958C15.7539 35.1244 13.9919 34.174 13.5331 32.5744C13.0743 30.9749 14.0916 29.3288 15.8038 28.9002C17.516 28.4716 19.278 29.4219 19.7368 31.0215C20.1956 32.6211 19.1783 34.2671 17.4661 34.6958ZM13.0334 19.2409C11.3211 19.6695 9.55917 18.7192 9.10038 17.1196C8.6416 15.52 9.65887 13.874 11.3711 13.4454C13.0833 13.0168 14.8453 13.9671 15.3041 15.5667C15.7629 17.1663 14.7456 18.8123 13.0334 19.2409ZM23.5213 24.8978C21.8091 25.3264 20.0471 24.376 19.5883 22.7765C19.1296 21.1769 20.1468 19.5308 21.859 19.1022C23.5713 18.6736 25.3332 19.624 25.792 21.2236C26.2508 22.8231 25.2335 24.4692 23.5213 24.8978ZM34.0093 30.5546C32.2971 30.9833 30.5351 30.0329 30.0763 28.4333C29.6175 26.8338 30.6348 25.1877 32.347 24.7591C34.0592 24.3305 35.8212 25.2808 36.28 26.8804C36.7388 28.48 35.7215 30.126 34.0093 30.5546ZM29.5765 15.0998C27.8643 15.5284 26.1024 14.5781 25.6436 12.9785C25.1848 11.3789 26.2021 9.73288 27.9143 9.30428C29.6265 8.87568 31.3885 9.82603 31.8473 11.4256C32.306 13.0252 31.2888 14.6712 29.5765 15.0998Z" fill="white"/>
</svg>
