<svg width="17" height="16" viewBox="0 0 17 16" fill="none" xmlns="http://www.w3.org/2000/svg">
<path fill-rule="evenodd" clip-rule="evenodd" d="M13.5367 0.420473C14.6109 0.834737 15.4594 1.68278 15.8761 2.75525C16.1142 3.3833 16.2386 4.0495 16.2502 4.7219C16.2999 5.57083 16.2999 5.84582 16.2999 8.01295C16.2999 10.1801 16.2884 10.4506 16.2502 11.304C16.2368 11.9675 16.1116 12.6222 15.8779 13.2431C15.4612 14.3156 14.6127 15.1628 13.5385 15.5788C12.9165 15.8112 12.2599 15.9372 11.5962 15.9505C10.7477 15.9993 10.4696 15.9993 8.29993 15.9993C6.13022 15.9993 5.85923 15.9877 5.00361 15.9505C4.33724 15.9292 3.68065 15.7926 3.06225 15.5513C1.98718 15.1362 1.13867 14.2881 0.721961 13.2165C0.488287 12.5947 0.36301 11.94 0.349682 11.2765C0.299927 10.4276 0.299927 10.1517 0.299927 7.98545C0.299927 5.81832 0.311477 5.54777 0.349682 4.6944C0.36301 4.03087 0.488287 3.37621 0.721961 2.75525C1.13778 1.68278 1.98629 0.834737 3.06137 0.420473C3.68242 0.186286 4.33902 0.0612081 5.00184 0.0479019C5.85035 0 6.12845 0 8.29815 0C10.4679 0 10.7388 0.0106448 11.5945 0.0479019C12.2591 0.0620951 12.9157 0.187173 13.5367 0.420473ZM14.5176 12.7082C14.6953 12.2283 14.7877 11.7218 14.7939 11.2108V11.2117H14.8037C14.8419 10.3637 14.8419 10.1313 14.8419 7.97037C14.8419 5.80856 14.8321 5.57172 14.7939 4.72811C14.7859 4.22248 14.6918 3.72128 14.5176 3.24758C14.2466 2.54945 13.6949 1.99769 12.9965 1.72891C12.5212 1.55238 12.0201 1.45924 11.5127 1.45303C10.6535 1.40424 10.4314 1.40424 8.26616 1.40424C6.1009 1.40424 5.86368 1.41488 5.01872 1.45303C4.51317 1.46012 4.01028 1.55327 3.53582 1.72891C2.8348 1.99681 2.27949 2.54768 2.0085 3.24758C1.8308 3.72749 1.7384 4.23312 1.73218 4.74408C1.68509 5.60365 1.68509 5.82453 1.68509 7.98633C1.68509 10.1472 1.69397 10.385 1.73218 11.2277C1.74018 11.7333 1.83436 12.2345 2.0085 12.7082C2.27949 13.4072 2.8348 13.959 3.53582 14.226C4.01028 14.4025 4.51317 14.4957 5.01872 14.5019C5.87878 14.5507 6.10002 14.5507 8.26616 14.5507C10.4305 14.5507 10.6687 14.5409 11.5127 14.5019C12.0201 14.4948 12.5212 14.4025 12.9965 14.226C13.6949 13.9581 14.2466 13.4064 14.5176 12.7082ZM12.5646 4.68402C13.0936 4.68402 13.5224 4.25588 13.5224 3.72775C13.5224 3.19962 13.0936 2.77148 12.5646 2.77148C12.0356 2.77148 11.6068 3.19962 11.6068 3.72775C11.6068 4.25588 12.0356 4.68402 12.5646 4.68402ZM8.29354 3.87891C6.02433 3.87891 4.18604 5.71515 4.18604 7.97985C4.18604 10.2454 6.02433 12.0817 8.29354 12.0817C10.561 12.0817 12.4011 10.2454 12.4011 7.97985C12.4011 5.71515 10.561 3.87891 8.29354 3.87891ZM8.29354 10.6446C6.81953 10.6446 5.62451 9.45151 5.62451 7.98074C5.62451 6.50908 6.81953 5.31685 8.29354 5.31685C9.76755 5.31685 10.9608 6.50908 10.9608 7.98074C10.9608 9.45151 9.76755 10.6446 8.29354 10.6446Z" />
</svg>
