<svg width="17" height="16" viewBox="0 0 17 16" fill="none" xmlns="http://www.w3.org/2000/svg">
<path fill-rule="evenodd" clip-rule="evenodd" d="M13.5366 0.420473C14.6108 0.834737 15.4593 1.68278 15.876 2.75525C16.1141 3.3833 16.2385 4.0495 16.25 4.7219C16.2998 5.57083 16.2998 5.84582 16.2998 8.01295C16.2998 10.1801 16.2883 10.4506 16.25 11.304C16.2367 11.9675 16.1114 12.6222 15.8778 13.2431C15.4611 14.3156 14.6126 15.1628 13.5384 15.5788C12.9164 15.8112 12.2598 15.9372 11.5961 15.9505C10.7476 15.9993 10.4695 15.9993 8.2998 15.9993C6.1301 15.9993 5.85911 15.9877 5.00349 15.9505C4.33712 15.9292 3.68052 15.7926 3.06213 15.5513C1.98705 15.1362 1.13854 14.2881 0.721839 13.2165C0.488165 12.5947 0.362888 11.94 0.34956 11.2765C0.299805 10.4276 0.299805 10.1517 0.299805 7.98545C0.299805 5.81832 0.311355 5.54777 0.34956 4.6944C0.362888 4.03087 0.488165 3.37621 0.721839 2.75525C1.13765 1.68278 1.98617 0.834737 3.06124 0.420473C3.6823 0.186286 4.3389 0.0612081 5.00171 0.0479019C5.85023 0 6.12833 0 8.29803 0C10.4677 0 10.7387 0.0106448 11.5943 0.0479019C12.2589 0.0620951 12.9155 0.187173 13.5366 0.420473ZM14.5175 12.7082C14.6952 12.2283 14.7876 11.7218 14.7938 11.2108V11.2117H14.8036C14.8418 10.3637 14.8418 10.1313 14.8418 7.97037C14.8418 5.80856 14.832 5.57172 14.7938 4.72811C14.7858 4.22248 14.6916 3.72128 14.5175 3.24758C14.2465 2.54945 13.6947 1.99769 12.9964 1.72891C12.521 1.55238 12.0199 1.45924 11.5126 1.45303C10.6534 1.40424 10.4313 1.40424 8.26604 1.40424C6.10078 1.40424 5.86355 1.41488 5.0186 1.45303C4.51304 1.46012 4.01016 1.55327 3.5357 1.72891C2.83468 1.99681 2.27937 2.54768 2.00838 3.24758C1.83068 3.72749 1.73828 4.23312 1.73206 4.74408C1.68497 5.60365 1.68497 5.82453 1.68497 7.98633C1.68497 10.1472 1.69385 10.385 1.73206 11.2277C1.74005 11.7333 1.83423 12.2345 2.00838 12.7082C2.27937 13.4072 2.83468 13.959 3.5357 14.226C4.01016 14.4025 4.51304 14.4957 5.0186 14.5019C5.87866 14.5507 6.09989 14.5507 8.26604 14.5507C10.4304 14.5507 10.6685 14.5409 11.5126 14.5019C12.0199 14.4948 12.521 14.4025 12.9964 14.226C13.6947 13.9581 14.2465 13.4064 14.5175 12.7082ZM12.5645 4.68402C13.0935 4.68402 13.5223 4.25588 13.5223 3.72775C13.5223 3.19962 13.0935 2.77148 12.5645 2.77148C12.0355 2.77148 11.6067 3.19962 11.6067 3.72775C11.6067 4.25588 12.0355 4.68402 12.5645 4.68402ZM8.29342 3.87891C6.02421 3.87891 4.18591 5.71515 4.18591 7.97985C4.18591 10.2454 6.02421 12.0817 8.29342 12.0817C10.5609 12.0817 12.4009 10.2454 12.4009 7.97985C12.4009 5.71515 10.5609 3.87891 8.29342 3.87891ZM8.29342 10.6446C6.81941 10.6446 5.62438 9.45151 5.62438 7.98074C5.62438 6.50908 6.81941 5.31685 8.29342 5.31685C9.76743 5.31685 10.9607 6.50908 10.9607 7.98074C10.9607 9.45151 9.76743 10.6446 8.29342 10.6446Z" fill="#999999"/>
</svg>
