<svg width="16" height="16" viewBox="0 0 16 16" fill="none" xmlns="http://www.w3.org/2000/svg">
<path fill-rule="evenodd" clip-rule="evenodd" d="M7.2782 2.28571C5.95411 2.28571 4.68425 2.81171 3.74798 3.74798C2.81171 4.68425 2.28571 5.95411 2.28571 7.2782C2.28571 8.60228 2.81171 9.87214 3.74798 10.8084C4.68425 11.7447 5.95411 12.2707 7.2782 12.2707C8.59405 12.2707 9.85633 11.7512 10.7909 10.8258C10.7977 10.8187 10.8047 10.8116 10.8117 10.8045C10.8179 10.7983 10.8242 10.7922 10.8305 10.7862C11.7529 9.85211 12.2707 8.59184 12.2707 7.2782C12.2707 5.95411 11.7447 4.68425 10.8084 3.74798C9.87214 2.81171 8.60228 2.28571 7.2782 2.28571ZM2.13173 2.13173C3.49666 0.766808 5.3479 0 7.2782 0C9.20849 0 11.0597 0.766808 12.4247 2.13173C13.7896 3.49666 14.5564 5.3479 14.5564 7.2782C14.5564 8.82224 14.0658 10.3157 13.1708 11.5501L15.666 14.0497C16.1119 14.4965 16.1113 15.2201 15.6645 15.666C15.2178 16.1119 14.4942 16.1113 14.0483 15.6645L11.5553 13.1671C10.3199 14.0644 8.82439 14.5564 7.2782 14.5564C5.3479 14.5564 3.49666 13.7896 2.13173 12.4247C0.766808 11.0597 0 9.20849 0 7.2782C0 5.3479 0.766808 3.49666 2.13173 2.13173Z" fill="#BBBBBB"/>
</svg>
