<svg width="44" height="40" viewBox="0 0 44 40" fill="none" xmlns="http://www.w3.org/2000/svg">
<path d="M16.0809 39.292C17.9306 39.762 19.8167 40 21.6899 40C21.7905 40 21.8912 40 21.9918 39.998C24.199 39.968 26.2135 38.902 27.376 37.148C28.5363 35.396 28.6605 33.242 27.7036 31.388L27.2797 30.558C26.3099 28.674 27.072 26.966 28.1103 25.996C29.1486 25.026 30.9812 24.314 32.9914 25.22H32.9936L33.8778 25.618C35.8666 26.51 38.1701 26.396 40.0455 25.312C41.9252 24.226 43.0641 22.346 43.0984 20.282C43.1283 18.44 42.8736 16.582 42.3427 14.762C40.1205 7.10803 33.0236 1.25404 24.6892 0.192036C17.9477 -0.661964 11.3282 1.39604 6.55415 5.85804C1.78006 10.32 -0.433572 16.494 0.486992 22.8C1.62164 30.588 7.89003 37.216 16.0809 39.292ZM29.1829 8.00004C30.9555 8.00004 32.3941 9.34204 32.3941 11C32.3941 12.658 30.9555 14 29.1829 14C27.4103 14 25.9716 12.658 25.9716 11C25.9716 9.34204 27.4103 8.00004 29.1829 8.00004ZM18.4787 6.00004C20.2513 6.00004 21.6899 7.34204 21.6899 9.00004C21.6899 10.658 20.2513 12 18.4787 12C16.706 12 15.2674 10.658 15.2674 9.00004C15.2674 7.34204 16.706 6.00004 18.4787 6.00004ZM15.2674 27.012C15.2674 28.67 13.8287 30.012 12.0561 30.012C10.2835 30.012 8.84485 28.668 8.84485 27.012C8.84485 25.356 10.2835 24.012 12.0561 24.012C13.8287 24.012 15.2674 25.356 15.2674 27.012ZM9.91527 14.012C11.6879 14.012 13.1265 15.356 13.1265 17.012C13.1265 18.67 11.6879 20.012 9.91527 20.012C8.14265 20.012 6.70401 18.668 6.70401 17.012C6.70401 15.356 8.14265 14.012 9.91527 14.012Z" fill="white"/>
</svg>
