<svg width="18" height="18" viewBox="0 0 18 18" fill="none" xmlns="http://www.w3.org/2000/svg">
<path d="M17.487 14.1401L13.422 10.4441C13.023 10.0811 12.407 10.1001 12.031 10.4871L10.389 12.1758C9.92019 12.6579 9.22917 12.8934 8.61452 12.6206C8.0589 12.374 7.39098 11.9654 6.71204 11.2881C6.03191 10.6074 5.62232 9.93715 5.37609 9.38075C5.10521 8.76865 5.34022 8.08156 5.81982 7.61463L7.51104 5.96812C7.89904 5.59212 7.91704 4.97712 7.55404 4.57712L3.85904 0.513121C3.49604 0.112121 2.87904 0.0741212 2.46804 0.426121L0.298038 2.28712C0.125038 2.46112 0.0220378 2.69112 0.00803782 2.93612C-0.00696218 3.18612 -0.292962 9.10812 4.29904 13.7021C8.30504 17.7071 13.323 18.0001 14.705 18.0001C14.907 18.0001 15.031 17.9941 15.064 17.9921C15.309 17.9781 15.539 17.8751 15.712 17.7011L17.572 15.5301C17.926 15.1191 17.887 14.5031 17.487 14.1401Z" fill="#AB4A46"/>
</svg>
