<svg width="20" height="16" viewBox="0 0 20 16" fill="none" xmlns="http://www.w3.org/2000/svg">
<path d="M18 0H2C0.896 0 0 0.896 0 2V14C0 15.104 0.896 16 2 16H18C19.104 16 20 15.104 20 14V2C20 0.896 19.104 0 18 0ZM18 4.16499C18 4.49924 17.833 4.81137 17.5549 4.9968L11.1095 9.29424C10.4377 9.7422 9.56235 9.7422 8.8905 9.29424L2.44514 4.9968C2.16704 4.81137 2 4.49924 2 4.16499C2 3.3665 2.8899 2.89023 3.55429 3.33313L8.89065 6.89048C9.56243 7.3383 10.4376 7.3383 11.1094 6.89048L16.4457 3.33313C17.1101 2.89023 18 3.3665 18 4.16499Z" fill="#AB4A46"/>
</svg>
