<svg width="39" height="40" viewBox="0 0 39 40" fill="none" xmlns="http://www.w3.org/2000/svg">
<path d="M34.676 4H30.2535C29.1489 4 28.2535 3.10457 28.2535 2C28.2535 0.895431 27.358 0 26.2535 0H25.9718C24.8672 0 23.9718 0.895431 23.9718 2C23.9718 3.10457 23.0764 4 21.9718 4H17.4084C16.3038 4 15.4084 3.10457 15.4084 2C15.4084 0.895431 14.513 0 13.4084 0H13.1267C12.0221 0 11.1267 0.895431 11.1267 2C11.1267 3.10457 10.2313 4 9.12671 4H4.70418C2.34282 4 0.422485 5.794 0.422485 8V36C0.422485 38.206 2.34282 40 4.70418 40H34.676C37.0374 40 38.9577 38.206 38.9577 36V8C38.9577 5.794 37.0374 4 34.676 4ZM19.6901 22C19.6901 23.1046 18.7947 24 17.6901 24H10.9859C9.8813 24 8.98587 23.1046 8.98587 22C8.98587 20.8954 9.8813 20 10.9859 20H17.6901C18.7947 20 19.6901 20.8954 19.6901 22ZM30.3943 14C30.3943 15.1046 29.4989 16 28.3943 16H10.9859C9.8813 16 8.98587 15.1046 8.98587 14C8.98587 12.8954 9.8813 12 10.9859 12H28.3943C29.4989 12 30.3943 12.8954 30.3943 14Z" fill="white"/>
</svg>
