<svg width="129" height="17" viewBox="0 0 129 17" fill="none" xmlns="http://www.w3.org/2000/svg">
<path fill-rule="evenodd" clip-rule="evenodd" d="M0 1.24017V15.7449H3.13421V9.67616H3.73613C5.43815 9.67616 6.0816 10.9244 6.55899 12.5599C6.89109 13.6359 7.16093 14.755 7.63832 15.7449H11.0424C10.3781 14.3031 9.92152 12.732 9.42336 11.1826C8.84219 9.43945 8.03269 8.14822 6.22689 7.67477L11.1046 1.24017H7.2647L3.40403 7.26588H3.13421V1.24017H0ZM11.5613 1.24017H15.1313L17.1655 6.34051C17.5391 7.37349 17.8297 8.2343 18.141 9.11663H18.2033C18.3901 8.49255 18.6185 7.52413 18.9712 6.29746L20.4865 1.24017H23.8074L21.1922 8.27734C20.3411 10.537 19.4694 12.732 18.4315 14.0664C17.5183 15.25 16.356 15.9817 14.7162 15.9817C13.9898 15.9817 13.5538 15.8956 13.1595 15.7449L13.3878 13.1195C13.6369 13.184 13.969 13.2271 14.4257 13.2271C15.4011 13.2271 16.0654 12.5383 16.3144 11.8713C16.439 11.6345 16.3767 11.4409 16.273 11.2041L11.5613 1.24017ZM25.8415 1.24017H35.2649V15.7449H32.11V3.93023H28.9342V7.37349C28.9342 11.0965 28.4776 13.9587 26.3605 15.25C25.6547 15.6588 24.7 15.9601 23.5792 15.9601L23.1847 13.3132C23.8698 13.2271 24.4302 12.9258 24.783 12.5383C25.634 11.6345 25.8415 9.78378 25.8415 7.58869V1.24017ZM38.0256 1.24017H41.1805V6.27595C41.6164 6.2329 42.2806 6.16835 42.8825 6.16835C45.8922 6.16835 48.4453 7.65325 48.4453 10.8813C48.4453 12.2586 48.0093 13.2916 47.3243 14.0448C45.9753 15.4651 43.6298 15.8956 41.4503 15.8956C39.8936 15.8956 38.7312 15.788 38.0256 15.6804V1.24017ZM41.1598 8.77231V13.3562C41.5126 13.4208 41.8862 13.4422 42.3429 13.4422C43.8789 13.4422 45.1242 12.6675 45.1242 11.032C45.1242 9.37489 43.8996 8.68623 42.3843 8.68623C41.9277 8.68623 41.5541 8.72928 41.1598 8.77231ZM51.3303 15.7449V3.99478H47.5734V1.24017H58.3253V3.99478H54.5061V15.7449H51.3303ZM59.2177 1.24017L63.9294 11.2041C64.0332 11.4409 64.0955 11.6345 63.9709 11.8713C63.7219 12.5383 63.0576 13.2271 62.0821 13.2271C61.6255 13.2271 61.2934 13.184 61.0442 13.1195L60.816 15.7449C61.2103 15.8956 61.6462 15.9817 62.3727 15.9817C64.0125 15.9817 65.1747 15.25 66.088 14.0664C67.1259 12.732 67.9976 10.537 68.8487 8.27734L71.4639 1.24017H68.143L66.6277 6.29746C66.2748 7.52413 66.0466 8.49255 65.8597 9.11663H65.7974C65.4861 8.2343 65.1956 7.37349 64.822 6.34051L62.7878 1.24017H59.2177ZM72.7301 15.7449V1.43385C73.7057 1.26169 75.0756 1.13257 77.0059 1.13257C78.957 1.13257 80.3476 1.51994 81.2817 2.29467C82.1742 3.02636 82.7761 4.2315 82.7761 5.65185C82.7761 7.0722 82.3195 8.27734 81.4893 9.09512C80.4099 10.1496 78.8117 10.6231 76.9436 10.6231C76.5285 10.6231 76.1548 10.6015 75.8642 10.5585V15.7449H72.7301ZM75.8642 3.73653V8.0191C76.1341 8.08367 76.4662 8.10518 76.9229 8.10518C78.6041 8.10518 79.642 7.22285 79.642 5.73793C79.642 4.40368 78.7494 3.60742 77.172 3.60742C76.5285 3.60742 76.0926 3.67197 75.8642 3.73653ZM90.788 12.0219H86.7821L85.7858 15.7449H82.5063L86.7821 1.24017H90.9333L95.2714 15.7449H91.8674L90.788 12.0219ZM87.2388 9.56857H90.3314L89.4597 6.49115C89.2106 5.63033 88.9615 4.55431 88.7539 3.6935H88.7125C88.5048 4.55431 88.2973 5.65185 88.069 6.49115L87.2388 9.56857ZM98.6546 15.9817C99.7756 15.9817 100.523 15.1424 100.523 14.0018C100.523 12.8181 99.7756 12.0004 98.6755 12.0004C97.5754 12.0004 96.8074 12.8397 96.8074 14.0018C96.8074 15.1424 97.5754 15.9817 98.6546 15.9817Z" fill="#38393D"/>
<path fill-rule="evenodd" clip-rule="evenodd" d="M102.689 15.6737V1.36266C103.665 1.1905 105.034 1.06137 106.965 1.06137C108.916 1.06137 110.307 1.44874 111.241 2.22348C112.133 2.95517 112.735 4.16032 112.735 5.58067C112.735 7.001 112.278 8.20615 111.448 9.02393C110.369 10.0784 108.771 10.5519 106.903 10.5519C106.487 10.5519 106.114 10.5303 105.823 10.4873V15.6737H102.689ZM105.823 3.66535V7.9479C106.093 8.01247 106.425 8.03398 106.882 8.03398C108.563 8.03398 109.601 7.15165 109.601 5.66675C109.601 4.33248 108.708 3.53622 107.131 3.53622C106.487 3.53622 106.052 3.60079 105.823 3.66535ZM120.042 0.566406H123.009V1.83611C125.978 2.05131 128.967 3.85903 128.967 8.37831C128.967 12.8546 126.06 14.6623 122.968 14.9636V16.2763H119.999V14.9636C116.969 14.7268 114.043 12.9407 114.043 8.48592C114.043 3.90207 117.343 2.07284 120.042 1.83611V0.566406ZM120.02 12.6824V4.07424C118.795 4.2464 117.219 5.36546 117.219 8.42135C117.219 11.262 118.775 12.5102 120.02 12.6824ZM122.988 4.07424V12.6824C124.213 12.5317 125.791 11.4557 125.791 8.37831C125.791 5.32241 124.296 4.2464 122.988 4.07424Z" fill="#ED2324"/>
</svg>
