<svg width="214" height="60" viewBox="0 0 214 60" fill="none" xmlns="http://www.w3.org/2000/svg">
<path d="M66.2453 21.1376H65.1276V14.6063H66.2453L68.543 17.5751L70.8407 14.6063H71.9585V21.1376H70.8407V16.1501L68.8535 18.6438H68.1704L66.1832 16.1501L66.2453 21.1376Z" fill="#58595B"/>
<path d="M74.7529 21.1376H73.7593V14.6063H74.8771V19.4157L78.7893 14.6063H79.7829V21.1376H78.6651V16.3282L74.7529 21.1376Z" fill="#58595B"/>
<path d="M82.6395 21.1376H81.5217V14.6063H82.6395V17.2188H86.3655V14.6063H87.4832V21.1376H86.3655V18.1094H82.6395V21.1376Z" fill="#58595B"/>
<path d="M90.2157 21.1376H89.2842V14.6063H90.402V19.4157L94.3142 14.6063H95.3078V21.1376H94.19V16.3282L90.2157 21.1376Z" fill="#58595B"/>
<path d="M100.462 21.2563C99.4063 21.2563 98.4749 20.9594 97.7918 20.3063C97.0466 19.6532 96.7361 18.8219 96.7361 17.8719C96.7361 16.8626 97.1087 16.0907 97.7918 15.4375C98.537 14.7844 99.4063 14.4875 100.462 14.4875C101.207 14.4875 101.828 14.6657 102.387 14.9032V15.9125C101.828 15.5563 101.207 15.3782 100.462 15.3782C99.7168 15.3782 99.0958 15.6157 98.5991 16.0907C98.1023 16.5657 97.8539 17.1 97.8539 17.8126C97.8539 18.5251 98.1023 19.1188 98.5991 19.5344C99.0958 20.0094 99.7168 20.2469 100.524 20.2469C101.331 20.2469 102.015 20.0688 102.573 19.6532V20.6626C101.89 21.0782 101.207 21.2563 100.462 21.2563Z" fill="#58595B"/>
<path d="M103.443 15.5563V14.6063H109.28V15.5563H106.92V21.197H105.803V15.5563H103.443Z" fill="#58595B"/>
<path d="M115.676 21.1376H110.46V14.6063H115.552V15.5563H111.578V17.2188H114.807V18.1688H111.578V20.1876H115.676V21.1376Z" fill="#58595B"/>
<path d="M117.974 21.1376H116.918V14.6063H120.023C120.768 14.6063 121.389 14.7844 121.762 15.1407C122.197 15.4969 122.445 15.9719 122.445 16.5063C122.445 17.0407 122.197 17.5157 121.762 17.9313C121.327 18.2876 120.768 18.4657 120.023 18.4657H118.036V21.1376H117.974ZM117.974 15.5563V17.5157H119.837C120.272 17.5157 120.582 17.3969 120.83 17.2782C121.079 17.1001 121.203 16.8626 121.203 16.5657C121.203 16.2688 121.079 16.0313 120.83 15.8532C120.582 15.6751 120.272 15.6157 119.837 15.6157L117.974 15.5563Z" fill="#58595B"/>
<path d="M127.103 21.2563C126.047 21.2563 125.115 20.9594 124.432 20.3063C123.687 19.6532 123.377 18.8219 123.377 17.8719C123.377 16.8626 123.749 16.0907 124.432 15.4375C125.177 14.7844 126.047 14.4875 127.103 14.4875C127.848 14.4875 128.469 14.6657 129.028 14.9032V15.9125C128.469 15.5563 127.848 15.3782 127.103 15.3782C126.357 15.3782 125.736 15.6157 125.24 16.0907C124.743 16.5657 124.494 17.1 124.494 17.8126C124.494 18.5251 124.743 19.1188 125.24 19.5344C125.736 20.0094 126.357 20.2469 127.165 20.2469C127.972 20.2469 128.655 20.0688 129.214 19.6532V20.6626C128.593 21.0782 127.91 21.2563 127.103 21.2563Z" fill="#58595B"/>
<path d="M130.083 15.5563V14.6063H135.921V15.5563H133.561V21.197H132.443V15.5563H130.083Z" fill="#58595B"/>
<path d="M140.578 21.1376H137.1V14.6063H140.33C141.013 14.6063 141.447 14.7844 141.882 15.0219C142.255 15.3188 142.441 15.7344 142.441 16.2094C142.441 16.5063 142.317 16.8032 142.193 17.0407C142.006 17.2782 141.82 17.4563 141.51 17.5157C141.944 17.5751 142.317 17.8126 142.565 18.1094C142.814 18.4063 143 18.8219 143 19.2969C143 19.8313 142.751 20.3063 142.317 20.6626C141.944 20.9594 141.385 21.1376 140.578 21.1376ZM138.218 15.5563V17.2188H140.143C140.516 17.2188 140.826 17.1594 141.013 16.9813C141.199 16.8032 141.323 16.6251 141.323 16.3282C141.323 16.0313 141.199 15.8532 141.013 15.6751C140.826 15.4969 140.516 15.4376 140.143 15.4376H138.218V15.5563ZM138.218 18.1094V20.1876H140.392C140.826 20.1876 141.199 20.0688 141.385 19.8907C141.634 19.7126 141.758 19.4751 141.758 19.1188C141.758 18.8219 141.634 18.5844 141.385 18.3469C141.137 18.1688 140.826 18.1094 140.392 18.1094H138.218Z" fill="#58595B"/>
<path d="M150.328 20.3063C149.644 20.9594 148.775 21.2563 147.719 21.2563C146.664 21.2563 145.794 20.9594 145.111 20.3063C144.428 19.6532 144.118 18.8219 144.118 17.8719C144.118 16.9219 144.428 16.0907 145.111 15.4969C145.794 14.8438 146.664 14.4875 147.719 14.4875C148.775 14.4875 149.644 14.8438 150.328 15.4969C151.011 16.15 151.383 16.9813 151.383 17.8719C151.383 18.7626 151.011 19.6532 150.328 20.3063ZM145.981 19.5938C146.477 20.0688 147.036 20.3063 147.719 20.3063C148.403 20.3063 149.024 20.0688 149.458 19.5938C149.955 19.1188 150.203 18.5251 150.203 17.8719C150.203 17.1594 149.955 16.5657 149.458 16.1501C148.961 15.675 148.403 15.4375 147.719 15.4375C147.036 15.4375 146.415 15.675 145.981 16.1501C145.484 16.6251 145.235 17.1594 145.235 17.8719C145.235 18.5844 145.484 19.1188 145.981 19.5938Z" fill="#58595B"/>
<path d="M156.662 21.1376H155.544V14.6063H156.662V17.2188H160.388V14.6063H161.505V21.1376H160.388V18.1094H156.662V21.1376Z" fill="#58595B"/>
<path d="M163.803 21.1375H162.623L165.728 14.5469H166.784L169.889 21.1375H168.709L167.902 19.5344H164.548L163.803 21.1375ZM166.287 15.8531L164.983 18.5844H167.591L166.287 15.8531Z" fill="#58595B"/>
<path d="M172.062 21.2562C171.628 21.2562 171.255 21.1969 171.069 21.0781V20.1281C171.317 20.2469 171.566 20.3062 171.876 20.3062C172.187 20.3062 172.373 20.2469 172.621 20.0687C172.808 19.95 172.994 19.6531 173.242 19.1781L170.448 14.5469H171.752L173.863 18.1094L175.602 14.5469H176.782L174.174 19.7125C173.615 20.7812 172.932 21.2562 172.062 21.2562Z" fill="#58595B"/>
<path d="M178.955 21.1376H177.837V14.6063H178.955V17.2782L181.874 14.6063H183.302L180.011 17.5751L183.861 21.1376H182.371L179.017 17.9907V21.1376H178.955Z" fill="#58595B"/>
<path d="M185.848 21.1376H184.917V14.6063H186.035V19.4157L189.947 14.6063H190.94V21.1376H189.823V16.3282L185.848 21.1376Z" fill="#58595B"/>
<path d="M66.1219 32.4783H65.1904V25.947H66.3082V30.7564L70.2205 25.947H71.2141V32.4783H70.0963V27.6689L66.1219 32.4783Z" fill="#58595B"/>
<path d="M79.0998 32.4783H75.6223V25.947H78.8515C79.5345 25.947 79.9692 26.1251 80.4039 26.3626C80.7765 26.6595 80.9628 27.0751 80.9628 27.5501C80.9628 27.847 80.8386 28.1439 80.7144 28.3814C80.5902 28.6189 80.3418 28.797 80.0313 28.8564C80.466 28.9158 80.8386 29.1533 81.087 29.4501C81.3354 29.747 81.5217 30.1626 81.5217 30.6376C81.5217 31.172 81.2733 31.647 80.8386 32.0033C80.4039 32.3001 79.845 32.4783 79.0998 32.4783ZM76.7401 26.8376V28.5001H78.6652C79.0378 28.5001 79.3482 28.4408 79.5345 28.2626C79.7208 28.0845 79.845 27.9064 79.845 27.6095C79.845 27.3126 79.7208 27.1345 79.5345 26.9564C79.3482 26.7783 79.0378 26.7189 78.6652 26.7189H76.7401V26.8376ZM76.7401 29.4501V31.5283H78.9136C79.3482 31.5283 79.7208 31.4095 79.9071 31.2314C80.1555 31.0533 80.2797 30.8158 80.2797 30.4595C80.2797 30.1626 80.1555 29.9251 79.9071 29.6876C79.6587 29.5095 79.3482 29.4501 78.9136 29.4501H76.7401Z" fill="#58595B"/>
<path d="M85.6203 32.4783H82.8879V25.947H84.0057V28.2033H85.6203C86.4276 28.2033 87.1107 28.3814 87.6075 28.797C88.1043 29.2126 88.3527 29.6876 88.3527 30.3408C88.3527 30.9939 88.1043 31.4689 87.6075 31.8845C87.0486 32.3001 86.4276 32.4783 85.6203 32.4783ZM84.0057 29.1533V31.5283H85.5582C86.055 31.5283 86.4276 31.4095 86.7381 31.2314C87.0486 31.0533 87.1728 30.7564 87.1728 30.3408C87.1728 29.9251 87.0486 29.6283 86.7381 29.4501C86.4276 29.272 86.055 29.1533 85.5582 29.1533H84.0057ZM90.3398 32.4783H89.2221V25.947H90.3398V32.4783Z" fill="#58595B"/>
<path d="M95.494 32.5969C94.4383 32.5969 93.5068 32.3 92.8237 31.6469C92.0786 30.9938 91.7681 30.1625 91.7681 29.2125C91.7681 28.2031 92.1407 27.4312 92.8237 26.7781C93.5689 26.125 94.4383 25.8281 95.494 25.8281C96.2392 25.8281 96.8602 26.0063 97.4191 26.2438V27.2531C96.8602 26.8969 96.2392 26.7188 95.494 26.7188C94.7488 26.7188 94.1278 26.9563 93.631 27.4313C93.1342 27.9063 92.8859 28.4406 92.8859 29.1531C92.8859 29.8656 93.1342 30.4594 93.631 30.875C94.1278 31.35 94.7488 31.5875 95.5561 31.5875C96.3634 31.5875 97.0465 31.4094 97.6054 30.9938V32.0031C96.9844 32.4188 96.3013 32.5969 95.494 32.5969Z" fill="#58595B"/>
<path d="M107.665 32.4783H98.9716V25.947H100.089V31.5876H102.76V25.947H103.877V31.5876H106.548V25.947H107.665V32.4783Z" fill="#58595B"/>
<path d="M114.559 32.4783H109.342V25.947H114.434V26.897H110.46V28.5001H113.689V29.4501H110.46V31.5283H114.559V32.4783Z" fill="#58595B"/>
<path d="M116.918 32.4783H115.8V25.947H120.83V26.897H116.918V32.4783Z" fill="#58595B"/>
<path d="M127.723 31.6469C127.04 32.3 126.171 32.5969 125.115 32.5969C124.06 32.5969 123.19 32.3 122.507 31.6469C121.824 30.9938 121.514 30.1625 121.514 29.2125C121.514 28.2625 121.824 27.4313 122.507 26.8375C123.19 26.1844 124.06 25.8281 125.115 25.8281C126.171 25.8281 127.04 26.1844 127.723 26.8375C128.407 27.4906 128.779 28.3219 128.779 29.2125C128.779 30.1031 128.407 30.9938 127.723 31.6469ZM123.314 30.9344C123.811 31.4094 124.37 31.6469 125.053 31.6469C125.736 31.6469 126.357 31.4094 126.792 30.9344C127.289 30.4594 127.537 29.8656 127.537 29.2125C127.537 28.5 127.289 27.9063 126.792 27.4906C126.295 27.0156 125.736 26.7781 125.053 26.7781C124.37 26.7781 123.749 27.0156 123.314 27.4906C122.818 27.9656 122.569 28.5 122.569 29.2125C122.631 29.925 122.818 30.4594 123.314 30.9344Z" fill="#58595B"/>
<path d="M138.901 31.6469C138.218 32.3 137.349 32.5969 136.293 32.5969C135.237 32.5969 134.368 32.3 133.685 31.6469C133.002 30.9938 132.691 30.1625 132.691 29.2125C132.691 28.2625 133.002 27.4313 133.685 26.8375C134.368 26.1844 135.237 25.8281 136.293 25.8281C137.349 25.8281 138.218 26.1844 138.901 26.8375C139.584 27.4906 139.957 28.3219 139.957 29.2125C139.957 30.1031 139.584 30.9938 138.901 31.6469ZM134.492 30.9344C134.989 31.4094 135.548 31.6469 136.231 31.6469C136.914 31.6469 137.535 31.4094 137.97 30.9344C138.467 30.4594 138.715 29.8656 138.715 29.2125C138.715 28.5 138.467 27.9063 137.97 27.4906C137.473 27.0156 136.914 26.7781 136.231 26.7781C135.548 26.7781 134.927 27.0156 134.492 27.4906C133.995 27.9656 133.747 28.5 133.747 29.2125C133.809 29.925 134.058 30.4594 134.492 30.9344Z" fill="#58595B"/>
<path d="M144.366 32.4783H141.385V25.947H146.415V26.897H142.503V28.2626H144.428C145.235 28.2626 145.856 28.4408 146.353 28.8564C146.788 29.2126 147.098 29.747 147.098 30.4001C147.098 31.0533 146.85 31.5283 146.353 31.9439C145.856 32.3001 145.173 32.4783 144.366 32.4783ZM142.441 29.2126V31.5283H144.242C144.739 31.5283 145.111 31.4095 145.422 31.2314C145.67 30.9939 145.856 30.7564 145.856 30.4001C145.856 30.0439 145.732 29.747 145.422 29.5095C145.111 29.272 144.739 29.2126 144.242 29.2126H142.441Z" fill="#58595B"/>
<path d="M149.396 32.4783H148.278V25.947H151.321C152.066 25.947 152.687 26.1251 153.06 26.4814C153.495 26.8376 153.743 27.3126 153.743 27.847C153.743 28.3814 153.495 28.8564 153.06 29.272C152.625 29.6283 152.066 29.8064 151.321 29.8064H149.334V32.4783H149.396ZM149.396 26.8376V28.797H151.259C151.694 28.797 152.004 28.6783 152.253 28.5595C152.501 28.4408 152.625 28.1439 152.625 27.847C152.625 27.5501 152.501 27.3126 152.253 27.1345C152.004 26.9564 151.694 26.897 151.259 26.897L149.396 26.8376Z" fill="#58595B"/>
<path d="M154.799 32.4782H153.619L156.724 25.8876H157.78L160.884 32.4782H159.767L158.959 30.8751H155.606L154.799 32.4782ZM157.283 27.1344L155.979 29.8657H158.587L157.283 27.1344Z" fill="#58595B"/>
<path d="M164.3 32.5969C163.306 32.5969 162.499 32.4188 161.816 32.0625V31.0532C162.126 31.2313 162.499 31.4094 162.934 31.4688C163.368 31.5875 163.741 31.6469 164.176 31.6469C164.735 31.6469 165.231 31.5282 165.604 31.35C165.977 31.1125 166.101 30.8751 166.101 30.5188C166.101 30.2219 165.914 29.9844 165.604 29.7469C165.293 29.5688 164.859 29.45 164.3 29.45H163.493V28.5H164.486C164.921 28.5 165.293 28.3813 165.48 28.2625C165.728 28.0844 165.852 27.9063 165.852 27.6094C165.852 27.3125 165.728 27.1344 165.418 26.9563C165.169 26.7782 164.735 26.7188 164.3 26.7188C163.555 26.7188 162.809 26.8969 162.126 27.1938V26.2438C162.809 25.8875 163.555 25.7688 164.362 25.7688C165.169 25.7688 165.79 25.9469 166.225 26.2438C166.722 26.5407 166.97 27.0157 166.97 27.55C166.97 27.9063 166.846 28.2032 166.598 28.4407C166.349 28.6782 166.101 28.8563 165.852 28.9157C166.225 29.0344 166.535 29.2125 166.846 29.5094C167.156 29.8063 167.281 30.1625 167.281 30.5782C167.281 31.1719 167.032 31.6469 166.473 32.0625C165.852 32.4188 165.169 32.5969 164.3 32.5969Z" fill="#58595B"/>
<path d="M174.546 31.6469C173.863 32.3 172.994 32.5969 171.938 32.5969C170.882 32.5969 170.013 32.3 169.33 31.6469C168.647 30.9938 168.336 30.1625 168.336 29.2125C168.336 28.2625 168.647 27.4313 169.33 26.8375C170.013 26.1844 170.882 25.8281 171.938 25.8281C172.994 25.8281 173.863 26.1844 174.546 26.8375C175.229 27.4906 175.602 28.3219 175.602 29.2125C175.602 30.1031 175.229 30.9938 174.546 31.6469ZM170.137 30.9344C170.634 31.4094 171.193 31.6469 171.876 31.6469C172.559 31.6469 173.18 31.4094 173.615 30.9344C174.111 30.4594 174.36 29.8656 174.36 29.2125C174.36 28.5 174.111 27.9063 173.615 27.4906C173.118 27.075 172.559 26.7781 171.876 26.7781C171.193 26.7781 170.572 27.0156 170.137 27.4906C169.64 27.9656 169.392 28.5 169.392 29.2125C169.454 29.925 169.702 30.4594 170.137 30.9344Z" fill="#58595B"/>
<path d="M180.508 32.4783H177.03V25.947H180.259C180.942 25.947 181.377 26.1251 181.812 26.3626C182.184 26.6595 182.371 27.0751 182.371 27.5501C182.371 27.847 182.246 28.1439 182.122 28.3814C181.936 28.6189 181.75 28.797 181.439 28.8564C181.874 28.9158 182.246 29.1533 182.495 29.4501C182.743 29.747 182.93 30.1626 182.93 30.6376C182.93 31.172 182.681 31.647 182.246 32.0033C181.812 32.3001 181.191 32.4783 180.508 32.4783ZM178.086 26.8376V28.5001H180.011C180.384 28.5001 180.694 28.4408 180.88 28.2626C181.067 28.0845 181.191 27.9064 181.191 27.6095C181.191 27.3126 181.067 27.1345 180.88 26.9564C180.694 26.7783 180.384 26.7189 180.011 26.7189H178.086V26.8376ZM178.086 29.4501V31.5283H180.259C180.694 31.5283 181.067 31.4095 181.253 31.2314C181.501 31.0533 181.625 30.8158 181.625 30.4595C181.625 30.1626 181.501 29.9251 181.253 29.6876C181.005 29.5095 180.694 29.4501 180.259 29.4501H178.086Z" fill="#58595B"/>
<path d="M184.73 32.4782H183.551L186.655 25.8876H187.711L190.816 32.4782H189.636L188.829 30.8751H185.476L184.73 32.4782ZM187.214 27.1344L185.91 29.8657H188.518L187.214 27.1344Z" fill="#58595B"/>
<path d="M193.114 32.4782H191.996V25.9469H193.114V28.5001H196.84V25.8876H197.958V32.4188H196.84V29.3907H193.114V32.4782Z" fill="#58595B"/>
<path d="M200.628 32.4783H199.696V25.947H200.814V30.7564L204.726 25.947H205.72V32.4783H204.602V27.6689L200.628 32.4783Z" fill="#58595B"/>
<path d="M208.204 32.4782H206.838L209.135 29.6282C208.639 29.5095 208.266 29.3313 207.956 28.9751C207.645 28.6782 207.521 28.2626 207.521 27.847C207.521 27.3126 207.707 26.8376 208.142 26.4813C208.577 26.1251 209.135 26.0063 209.881 26.0063H213.11V32.5376H211.992V29.6876H210.315L208.204 32.4782ZM209.943 28.797H212.054V26.8376H209.943C209.57 26.8376 209.198 26.9563 209.011 27.0751C208.763 27.2532 208.701 27.4907 208.701 27.7876C208.701 28.0845 208.825 28.322 209.011 28.5001C209.26 28.6782 209.57 28.797 209.943 28.797Z" fill="#58595B"/>
<path d="M66.2454 43.8187H65.1276V37.2875H68.2325C68.9777 37.2875 69.5987 37.4656 69.9713 37.8219C70.406 38.1781 70.6544 38.6531 70.6544 39.1875C70.6544 39.7219 70.406 40.1969 69.9713 40.6125C69.5366 40.9687 68.9777 41.1469 68.2325 41.1469H66.2454V43.8187ZM66.2454 38.1781V40.1375H68.1083C68.543 40.1375 68.8535 40.0187 69.1019 39.9C69.3503 39.7219 69.4745 39.4844 69.4745 39.1875C69.4745 38.8906 69.3503 38.6531 69.1019 38.475C68.8535 38.2969 68.543 38.2375 68.1083 38.2375L66.2454 38.1781Z" fill="#58595B"/>
<path d="M77.8579 42.9281C77.1748 43.5813 76.3054 43.8781 75.2497 43.8781C74.194 43.8781 73.3246 43.5813 72.6415 42.9281C71.9584 42.275 71.6479 41.4438 71.6479 40.4938C71.6479 39.5438 71.9584 38.7125 72.6415 38.1188C73.3246 37.4656 74.194 37.1094 75.2497 37.1094C76.3054 37.1094 77.1748 37.4656 77.8579 38.1188C78.541 38.7719 78.9136 39.6031 78.9136 40.4938C78.9136 41.4438 78.541 42.275 77.8579 42.9281ZM73.5109 42.2156C74.0077 42.6906 74.5666 42.9281 75.2497 42.9281C75.9328 42.9281 76.5538 42.6906 76.9885 42.2156C77.4853 41.7406 77.7337 41.1469 77.7337 40.4938C77.7337 39.8406 77.4853 39.1875 76.9885 38.7719C76.4917 38.2969 75.9328 38.0594 75.2497 38.0594C74.5666 38.0594 73.9456 38.2969 73.5109 38.7719C73.0141 39.2469 72.7657 39.7813 72.7657 40.4938C72.7657 41.2063 73.0141 41.8 73.5109 42.2156Z" fill="#58595B"/>
<path d="M83.8815 43.9376C82.8258 43.9376 81.8943 43.6407 81.2112 42.9876C80.466 42.3345 80.1555 41.5032 80.1555 40.5532C80.1555 39.5438 80.5281 38.7719 81.2112 38.1188C81.9564 37.4657 82.8258 37.1688 83.8815 37.1688C84.6267 37.1688 85.2476 37.3469 85.8065 37.5844V38.5938C85.2476 38.2376 84.6267 38.0594 83.8815 38.0594C83.1363 38.0594 82.5153 38.297 82.0185 38.772C81.5217 39.247 81.2733 39.7813 81.2733 40.4938C81.2733 41.2063 81.5217 41.8001 82.0185 42.2157C82.5153 42.6907 83.1363 42.9282 83.9436 42.9282C84.7509 42.9282 85.4339 42.7501 85.9928 42.3345V43.3438C85.3718 43.7595 84.6888 43.9376 83.8815 43.9376Z" fill="#58595B"/>
<path d="M90.6503 43.9376C89.5946 43.9376 88.6631 43.6407 87.98 42.9876C87.2348 42.3345 86.9243 41.5032 86.9243 40.5532C86.9243 39.5438 87.2969 38.7719 87.98 38.1188C88.7252 37.4657 89.5946 37.1688 90.6503 37.1688C91.3954 37.1688 92.0164 37.3469 92.5753 37.5844V38.5938C92.0164 38.2376 91.3954 38.0594 90.6503 38.0594C89.9051 38.0594 89.2841 38.297 88.7873 38.772C88.2905 39.247 88.0421 39.7813 88.0421 40.4938C88.0421 41.2063 88.2905 41.8001 88.7873 42.2157C89.2841 42.6907 89.9051 42.9282 90.7124 42.9282C91.5197 42.9282 92.2027 42.7501 92.7616 42.3345V43.3438C92.0785 43.7595 91.3954 43.9376 90.6503 43.9376Z" fill="#58595B"/>
<path d="M94.9973 43.8187H94.0658V37.2875H95.1836V42.0969L99.0958 37.2875H100.089V43.8187H98.9716V39.0094L94.9973 43.8187Z" fill="#58595B"/>
<path d="M102.76 43.8188H101.828V37.2875H102.946V42.0969L106.858 37.2875H107.852V43.8188H106.734V39.0094L102.76 43.8188ZM104.809 36.8125C104.312 36.8125 103.815 36.6344 103.505 36.3969C103.194 36.1 103.008 35.7438 103.008 35.2688H103.94C103.94 35.5063 104.002 35.6844 104.188 35.8032C104.374 35.9813 104.56 36.0407 104.809 36.0407C105.057 36.0407 105.306 35.9813 105.43 35.8032C105.616 35.625 105.678 35.4469 105.678 35.2688H106.61C106.61 35.7438 106.423 36.1 106.113 36.3969C105.802 36.6938 105.368 36.8125 104.809 36.8125Z" fill="#58595B"/>
<path d="M113.006 43.9376C111.95 43.9376 111.019 43.6407 110.336 42.9876C109.591 42.3345 109.28 41.5032 109.28 40.5532C109.28 39.5438 109.653 38.7719 110.336 38.1188C111.081 37.4657 111.95 37.1688 113.006 37.1688C113.751 37.1688 114.372 37.3469 114.931 37.5844V38.5938C114.372 38.2376 113.751 38.0594 113.006 38.0594C112.261 38.0594 111.64 38.297 111.143 38.772C110.646 39.247 110.398 39.7813 110.398 40.4938C110.398 41.2063 110.646 41.8001 111.143 42.2157C111.64 42.6907 112.261 42.9282 113.068 42.9282C113.875 42.9282 114.558 42.7501 115.117 42.3345V43.3438C114.496 43.7595 113.813 43.9376 113.006 43.9376Z" fill="#58595B"/>
<path d="M117.601 43.8187H116.484V37.2875H117.601V39.9594L120.52 37.2875H121.948L118.657 40.2562L122.507 43.8187H120.955L117.601 40.6719V43.8187Z" fill="#58595B"/>
<path d="M128.779 42.9281C128.096 43.5813 127.227 43.8781 126.171 43.8781C125.115 43.8781 124.246 43.5813 123.563 42.9281C122.88 42.275 122.569 41.4438 122.569 40.4938C122.569 39.5438 122.88 38.7125 123.563 38.1188C124.246 37.4656 125.115 37.1094 126.171 37.1094C127.227 37.1094 128.096 37.4656 128.779 38.1188C129.462 38.7719 129.835 39.6031 129.835 40.4938C129.773 41.4438 129.462 42.275 128.779 42.9281ZM124.37 42.2156C124.867 42.6906 125.426 42.9281 126.109 42.9281C126.792 42.9281 127.413 42.6906 127.848 42.2156C128.344 41.7406 128.593 41.1469 128.593 40.4938C128.593 39.8406 128.344 39.1875 127.848 38.7719C127.351 38.2969 126.792 38.0594 126.109 38.0594C125.426 38.0594 124.805 38.2969 124.37 38.7719C123.873 39.2469 123.625 39.7813 123.625 40.4938C123.687 41.2063 123.873 41.8 124.37 42.2156Z" fill="#58595B"/>
<path d="M132.195 43.8188H131.201V37.2875H132.319V42.0969L136.231 37.2875H137.225V43.8188H136.107V39.0094L132.195 43.8188ZM134.182 36.8125C133.685 36.8125 133.188 36.6344 132.878 36.3969C132.567 36.1 132.381 35.7438 132.381 35.2688H133.312C133.312 35.5063 133.375 35.6844 133.561 35.8032C133.747 35.9813 133.933 36.0407 134.182 36.0407C134.43 36.0407 134.679 35.9813 134.803 35.8032C134.989 35.625 135.051 35.4469 135.051 35.2688H135.983C135.983 35.7438 135.796 36.1 135.486 36.3969C135.113 36.6938 134.741 36.8125 134.182 36.8125Z" fill="#58595B"/>
<path d="M145.981 43.997H144.863V43.2845C143.745 43.2251 142.876 42.9876 142.255 42.4532C141.696 41.9188 141.385 41.2657 141.385 40.4938C141.385 40.1376 141.447 39.7813 141.634 39.4845C141.758 39.1282 142.006 38.8313 142.255 38.5938C142.503 38.297 142.938 38.1188 143.372 37.9407C143.807 37.7626 144.366 37.7032 144.925 37.6438V36.9907H146.043V37.6438C146.602 37.6438 147.098 37.7626 147.595 37.8813C148.03 38.0595 148.402 38.2376 148.713 38.5345C149.023 38.8313 149.21 39.0688 149.334 39.4251C149.458 39.7814 149.582 40.1376 149.582 40.4345C149.582 40.7313 149.52 41.147 149.334 41.4439C149.148 41.7407 148.961 42.097 148.713 42.3345C148.402 42.6314 148.03 42.8095 147.595 42.9876C147.16 43.1657 146.602 43.2251 146.043 43.2251L145.981 43.997ZM144.863 42.3939V38.5345C144.118 38.5345 143.497 38.7126 143.124 39.0689C142.751 39.4251 142.565 39.9001 142.565 40.4345C142.565 40.9688 142.751 41.4439 143.124 41.8001C143.497 42.1564 144.118 42.3345 144.863 42.3939ZM145.981 38.5345V42.3939C146.788 42.3939 147.347 42.2157 147.719 41.8595C148.092 41.5032 148.278 41.0282 148.278 40.4938C148.278 39.9595 148.092 39.4845 147.719 39.1282C147.347 38.7126 146.726 38.5345 145.981 38.5345Z" fill="#58595B"/>
<path d="M155.979 43.8187H150.762V37.2875H155.854V38.2375H151.88V39.9H155.109V40.85H151.88V42.9281H155.979V43.8187Z" fill="#58595B"/>
<path d="M157.966 45.1844H156.91V42.8687H157.593C157.966 42.3344 158.276 41.7406 158.4 41.0281C158.587 40.3156 158.649 39.3656 158.649 38.1781V37.2875H163.368V42.9281H164.362V45.2437H163.306V43.8187H157.904L157.966 45.1844ZM158.773 42.8094H162.251V38.1187H159.705C159.705 39.1875 159.642 40.1375 159.456 40.85C159.394 41.6812 159.146 42.3344 158.773 42.8094Z" fill="#58595B"/>
<path d="M170.758 43.8187H165.542V37.2875H170.634V38.2375H166.66V39.9H169.889V40.85H166.66V42.9281H170.758V43.8187Z" fill="#58595B"/>
<path d="M173.118 43.8187H172V37.2875H175.105C175.85 37.2875 176.471 37.4656 176.844 37.8219C177.279 38.1781 177.527 38.6531 177.527 39.1875C177.527 39.7219 177.279 40.1969 176.844 40.6125C176.409 40.9687 175.85 41.1469 175.105 41.1469H173.118V43.8187ZM173.118 38.1781V40.1375H174.981C175.416 40.1375 175.726 40.0187 175.974 39.9C176.223 39.7219 176.347 39.4844 176.347 39.1875C176.347 38.8906 176.223 38.6531 175.974 38.475C175.726 38.2969 175.416 38.2375 174.981 38.2375L173.118 38.1781Z" fill="#58595B"/>
<path d="M178.521 43.8188H177.341L180.446 37.2281H181.501L184.606 43.8188H183.426L182.619 42.2156H179.266L178.521 43.8188ZM181.005 38.475L179.7 41.2063H182.309L181.005 38.475Z" fill="#58595B"/>
<path d="M192.555 45.1844H191.499V43.7594H185.786V37.2281H186.904V42.8688H190.381V37.2281H191.499V42.8688H192.493V45.1844H192.555Z" fill="#58595B"/>
<path d="M194.666 43.8187H193.735V37.2875H194.853V42.0969L198.765 37.2875H199.758V43.8187H198.641V39.0094L194.666 43.8187Z" fill="#58595B"/>
<path d="M202.429 43.8187H201.497V37.2875H202.615V42.0969L206.527 37.2875H207.521V43.8187H206.403V39.0094L202.429 43.8187Z" fill="#58595B"/>
<path d="M42.0888 42.5125C41.9025 42.5125 41.7783 42.6312 41.7783 42.8093C41.7783 42.9875 41.9025 43.1062 42.0888 43.1062C42.2751 43.1062 42.3993 42.9875 42.3993 42.8093C42.3993 42.6906 42.2751 42.5125 42.0888 42.5125Z" fill="#13377D"/>
<path d="M43.1444 45.4219C43.1444 45.6 43.2686 45.7187 43.4549 45.7187C43.6412 45.7187 43.7654 45.6 43.7654 45.4219C43.7654 45.2437 43.6412 45.125 43.4549 45.125C43.2686 45.125 43.1444 45.2437 43.1444 45.4219Z" fill="#13377D"/>
<path d="M42.0888 45.125C41.9025 45.125 41.7783 45.2437 41.7783 45.4219C41.7783 45.6 41.9025 45.7187 42.0888 45.7187C42.2751 45.7187 42.3993 45.6 42.3993 45.4219C42.3993 45.2437 42.2751 45.125 42.0888 45.125Z" fill="#13377D"/>
<path d="M44.5106 45.4219C44.5106 45.6 44.6348 45.7187 44.8211 45.7187C45.0074 45.7187 45.1316 45.6 45.1316 45.4219C45.1316 45.2437 45.0074 45.125 44.8211 45.125C44.6348 45.125 44.5106 45.2437 44.5106 45.4219Z" fill="#13377D"/>
<path d="M41.6541 39.6031L41.7162 40.375L41.0331 40.3157V41.1469L41.7162 41.0281L41.6541 41.8H42.5235L42.4614 41.0281L43.1445 41.1469V40.3157L42.4614 40.375L42.5235 39.6031H41.6541Z" fill="#13377D"/>
<path d="M42.6477 42.275V44.9469H45.318C45.1317 43.5813 44.0139 42.5125 42.6477 42.275Z" fill="#13377D"/>
<path d="M42.0888 43.8187C41.9025 43.8187 41.7783 43.9375 41.7783 44.1156C41.7783 44.2937 41.9025 44.4125 42.0888 44.4125C42.2751 44.4125 42.3993 44.2937 42.3993 44.1156C42.3993 43.9375 42.2751 43.8187 42.0888 43.8187Z" fill="#13377D"/>
<path d="M43.2066 47.2031C43.1445 47.2031 42.8961 47.8563 43.1445 48.3313C43.2687 48.5688 43.5171 48.6875 43.7655 48.6281C44.0139 48.5688 44.076 48.3313 44.076 48.2125C44.0139 47.6781 43.5792 47.2031 43.2066 47.2031Z" fill="#13377D"/>
<path d="M40.971 47.2031C40.5984 47.2031 40.1637 47.6781 40.1637 48.2125C40.1637 48.3906 40.2258 48.5688 40.4742 48.6281C40.7226 48.6875 40.971 48.5688 41.0952 48.3313C41.2194 47.8563 41.0331 47.2031 40.971 47.2031Z" fill="#13377D"/>
<path d="M42.0887 46.8469C41.8403 46.8469 41.0952 48.2125 41.6541 48.8657C41.7782 48.9844 41.9024 49.0438 42.0887 49.0438C42.275 49.0438 42.4613 48.9844 42.5234 48.8657C43.0202 48.2125 42.3371 46.8469 42.0887 46.8469Z" fill="#13377D"/>
<path d="M38.7976 45.4219C38.7976 45.125 38.8597 44.8875 38.8597 44.8875H41.5299V44.65V42.75V42.2157C40.2258 42.4532 39.1701 43.4032 38.8597 44.65C38.7976 44.7688 38.5492 44.8282 38.3629 44.7688C37.3693 44.65 35.3821 44.2938 35.3821 43.8782C35.3821 43.2844 35.8168 43.0469 36.1894 43.0469C36.7483 43.0469 37.3693 43.3438 37.8661 42.6313C36.0652 42.6907 37.4314 40.1969 35.941 39.7219C36.0031 40.375 35.941 41.5032 35.6926 42.0969C35.6926 42.0969 35.1337 41.5625 34.5748 41.325C34.6369 41.8 34.5127 42.75 34.3264 43.225C34.3264 43.225 33.7054 42.6313 33.0223 42.4532C33.6433 43.2844 33.6433 44.5313 33.457 45.2438C33.3949 45.4813 33.5812 45.7188 34.0159 45.7188C34.7611 45.6594 37.2451 45.7782 38.3008 46.1938C38.6113 46.3125 38.9218 46.4907 39.0459 46.7282C39.1701 47.025 39.4185 47.5 39.7911 47.7375C39.9774 47.2032 40.5984 46.6094 41.0331 46.6688C41.1573 46.6688 41.2815 46.9063 41.3436 47.0844C41.4057 46.9063 41.7162 46.3719 42.0267 46.3719C42.3372 46.3719 42.6477 46.7875 42.7719 47.1438C42.834 46.9063 42.9582 46.6688 43.0824 46.6688C43.5171 46.6688 44.076 47.025 44.2623 47.6782C44.4486 47.5 45.1938 46.55 45.2559 45.8969H38.7976C38.7976 45.9563 38.7976 45.7188 38.7976 45.4219Z" fill="#13377D"/>
<path d="M40.4121 45.4219C40.4121 45.6 40.5363 45.7187 40.7226 45.7187C40.9089 45.7187 41.0331 45.6 41.0331 45.4219C41.0331 45.2437 40.9089 45.125 40.7226 45.125C40.5363 45.125 40.4121 45.2437 40.4121 45.4219Z" fill="#13377D"/>
<path d="M39.108 45.4219C39.108 45.6 39.2322 45.7187 39.4185 45.7187C39.6048 45.7187 39.729 45.6 39.729 45.4219C39.729 45.2437 39.6048 45.125 39.4185 45.125C39.2322 45.125 39.108 45.2437 39.108 45.4219Z" fill="#13377D"/>
<path d="M13.3989 46.7281C13.2747 46.8469 13.0264 47.5 13.1505 47.9157C13.2126 48.0938 13.2747 48.1532 13.461 48.1532C13.6473 48.1532 13.7094 48.0344 13.7715 47.8563C13.8336 47.4407 13.5231 46.7875 13.3989 46.7281Z" fill="#13377D"/>
<path d="M15.6967 48.5687C15.5725 48.7468 15.3862 48.8062 15.3241 48.8656C15.3862 48.925 15.5725 49.0437 15.7588 49.0437C15.883 49.0437 16.0072 48.9843 16.0693 48.925C16.2556 48.5687 16.0693 48.2718 16.0072 48.1531C15.9451 48.2718 15.883 48.45 15.6967 48.5687Z" fill="#13377D"/>
<path d="M14.8273 47.7375C15.0757 47.5 15.1378 47.3219 15.0757 47.2032C15.0136 47.025 14.4547 46.4907 13.8337 45.8375C13.8337 45.9563 13.7716 46.075 13.7716 46.1938C14.2063 46.7875 14.3926 47.3813 14.2684 47.9157C14.3305 47.975 14.3305 47.975 14.3926 47.975C14.5168 48.0938 14.7031 47.9157 14.8273 47.7375Z" fill="#13377D"/>
<path d="M15.6967 47.7968C15.6967 47.6781 15.6967 47.6187 15.6346 47.5593H15.5725C15.5104 47.5593 15.4483 47.6781 15.3862 47.7375C15.3241 47.7968 15.262 47.9156 15.1378 48.0343C15.0136 48.1531 14.9515 48.2125 14.8273 48.3312C14.7031 48.3906 14.641 48.5093 14.641 48.5687C14.641 48.5687 14.641 48.5687 14.641 48.6281C14.7031 48.6875 14.7031 48.6875 14.7652 48.6875C14.8273 48.6875 15.0136 48.6281 15.3241 48.3312C15.6346 48.0343 15.6967 47.9156 15.6967 47.7968Z" fill="#13377D"/>
<path d="M11.5981 44.65C11.5981 44.65 11.536 44.7094 11.4739 44.8282C11.5981 44.8282 11.7844 44.8282 11.9086 44.8875C11.9086 44.7688 11.9086 44.5907 11.9086 44.4719C11.7844 44.4719 11.6602 44.5907 11.5981 44.65Z" fill="#13377D"/>
<path d="M13.2747 44.8281C13.2747 44.8281 14.5788 45.8969 15.0135 46.3125C15.1377 46.4313 15.2619 46.4313 15.3861 46.3719C15.4482 46.3125 15.5724 46.3125 15.6966 46.2531C17.0007 45.8375 19.112 45.7781 19.8572 45.7781C20.354 45.7781 20.4782 45.5406 20.4161 45.3031C20.2919 44.5906 20.2298 43.3438 20.8508 42.5125C20.1677 42.75 19.5467 43.2844 19.5467 43.2844C19.2983 42.8688 19.2362 41.8594 19.2983 41.3844C18.6774 41.5625 18.1806 42.1563 18.1806 42.1563C17.9322 41.5625 17.8701 40.4344 17.9322 39.7812C16.4418 40.2563 17.808 42.8094 16.0071 42.6906C16.5039 43.4031 17.1249 43.1063 17.6838 43.1063C18.0564 43.1063 18.5532 43.3438 18.4911 43.9375C18.429 44.3531 16.0071 44.8281 15.0135 44.8281C14.3304 44.8281 13.8336 44.65 13.5231 44.175C13.3368 43.9375 13.2126 43.8781 13.0263 43.8781C12.7779 43.9375 12.5295 44.1156 12.5295 44.7094C12.5295 45.0656 12.7158 45.8969 13.1505 45.8969C13.3989 45.9563 13.3989 45.2438 13.2747 44.8281Z" fill="#13377D"/>
<path d="M10.7908 44.4718C10.8529 44.4718 10.915 44.4718 10.9771 44.4718C10.7908 44.7093 10.7908 44.8875 10.8529 44.9468C10.9771 45.0656 11.0392 44.8281 11.3497 44.5312C11.6602 44.2343 11.8465 44.1156 11.7844 43.9968C11.7223 43.9375 11.536 43.9375 11.2876 44.1156C11.2876 44.0562 11.3497 43.9968 11.2876 43.9375C11.1634 43.6406 10.7287 43.2843 10.4182 43.2843C10.3561 43.2843 10.3561 43.2843 10.294 43.2843C10.4182 43.1062 10.3561 42.9875 10.294 42.8687C10.2319 42.8093 10.1698 42.8687 10.0456 42.9875C10.0456 42.9281 10.0456 42.8093 9.98354 42.6906C9.61094 42.0968 7.49957 40.1969 7.00278 40.0187C6.69228 39.9 6.63018 40.0781 6.63018 40.0781C6.63018 40.0781 6.44389 40.1968 6.56808 40.4343C6.75438 40.9093 8.80365 42.8687 9.36254 43.225C9.48674 43.2843 9.61094 43.3437 9.67304 43.2843C9.54884 43.4031 9.48674 43.4031 9.61094 43.5218C9.67304 43.5812 9.79724 43.6406 9.98354 43.5218C9.98354 43.5812 9.98354 43.5812 9.98354 43.6406C10.1077 43.8781 10.4803 44.3531 10.7908 44.4718Z" fill="#13377D"/>
<path d="M12.2812 45.8969C12.2812 45.7188 11.9086 45.3625 11.4118 45.3625C10.7287 45.3625 10.4182 45.7782 10.4182 46.0157C10.4182 46.4313 10.8529 46.4907 10.9771 46.4907C11.4118 46.4907 12.2191 46.0157 12.2812 45.8969Z" fill="#13377D"/>
<path d="M11.6603 46.9063C11.474 47.1438 11.4119 47.3813 11.474 47.5594C11.5361 47.7969 11.7845 47.9157 12.0329 47.9157C12.2813 47.9157 12.5297 47.7969 12.6539 47.6188C12.9022 47.2032 12.9022 46.3125 12.8402 46.2532C12.5918 46.2532 11.9708 46.4907 11.6603 46.9063Z" fill="#13377D"/>
<path d="M5.57448 37.6436C5.38819 37.4655 4.95349 37.7624 4.7051 37.5843C4.82929 36.9905 5.26399 37.5843 5.63658 37.228C5.82288 37.0499 5.69868 36.8124 5.63658 36.753C5.45029 36.9311 5.20189 36.8718 5.13979 36.753C5.57448 35.6843 4.7051 34.5561 3.83571 34.6749C4.02201 34.9124 4.0841 35.6843 3.95991 35.8624C4.2704 36.0999 4.0841 36.6343 3.71151 36.4561C3.46311 36.3374 3.02842 35.7436 3.52521 35.3874C3.52521 35.2093 3.21472 35.2093 2.96632 35.5655C3.15262 34.9124 1.84854 35.0905 1.60014 35.2686C1.47594 35.5655 1.28964 36.8124 1.97273 36.5749C1.60014 36.8718 1.66224 37.1686 1.78644 37.1686C2.22113 36.6936 2.78002 37.0499 2.90422 37.2874C3.09052 37.6436 2.53163 37.8811 2.28323 37.5843C2.09693 37.6436 1.28964 37.6436 1.10335 37.4655C0.979148 38.2968 2.22113 39.1874 3.27682 38.7124C3.40101 38.7124 3.46311 39.0093 3.27682 39.1874C3.33892 39.3062 3.64941 39.3655 3.77361 39.1874C4.2083 38.7718 3.58731 38.3562 4.1462 38.2374C4.2704 38.4749 4.02201 38.8905 4.2083 39.0687C4.5188 39.3655 4.89139 38.7718 5.32609 38.7718C5.32609 38.2968 5.88498 37.9405 5.57448 37.6436ZM2.34533 36.278C2.34533 36.278 2.15903 36.1593 2.40743 35.8624C2.65582 35.6249 2.78002 35.803 2.78002 35.803C2.78002 35.803 3.02842 36.278 3.09052 36.5155C2.84212 36.5155 2.34533 36.278 2.34533 36.278ZM4.3325 37.7624C4.2083 37.7624 3.89781 38.0593 3.77361 37.8811L3.09052 37.228L3.46311 36.8718L3.83571 36.5155L4.5188 37.1686C4.5809 37.3468 4.3325 37.6436 4.3325 37.7624Z" fill="#13377D"/>
<path d="M5.76085 38.8313C5.69875 38.8313 5.63665 38.8313 5.57455 38.8907C5.51245 38.95 5.51245 39.0688 5.51245 39.1875C5.51245 39.3063 5.63665 39.425 5.76085 39.5438C5.82295 39.7219 6.00924 39.7813 6.13344 39.7813C6.19554 39.7813 6.25764 39.7813 6.31974 39.7219C6.44394 39.6032 6.38184 39.2469 6.19554 39.0688C6.07134 38.95 5.88505 38.8313 5.76085 38.8313Z" fill="#13377D"/>
<path d="M3.7736 36.8718L3.5873 37.05L3.401 37.2281C3.401 37.2281 3.7736 37.7031 4.08409 37.525C4.27039 37.2281 3.7736 36.8718 3.7736 36.8718Z" fill="#13377D"/>
<path d="M40.0395 35.0906C40.0395 35.2093 39.5427 35.4468 39.1701 34.7937C38.7975 34.7343 38.4249 34.6156 38.1765 34.4968C38.6112 35.3281 38.9838 36.0406 39.6048 36.3968C40.5363 36.9312 41.9646 36.8125 42.3993 36.2187C41.592 35.8031 40.6605 34.7343 40.1637 33.725C40.0395 33.9625 39.8532 34.3781 39.729 34.675C39.7911 34.7937 39.9153 34.9718 40.0395 35.0906Z" fill="#13377D"/>
<path d="M48.6713 22.0875C49.6649 21.6719 51.0932 20.7219 51.7762 20.1281C51.8383 20.2469 52.0867 20.7812 51.3416 21.375C50.7827 21.7906 49.6649 22.325 48.8576 22.6219C48.485 23.1562 47.7398 23.75 46.7462 24.4031C48.7334 24.1062 51.0932 23.3344 52.273 22.2656C54.4465 20.1875 53.3287 17.6937 53.0182 17.1C51.5899 18.8219 48.8576 20.6031 46.3115 21.5531C47.1809 21.6719 48.0503 21.85 48.6713 22.0875Z" fill="#13377D"/>
<path d="M47.0567 18.2875C48.3608 17.2781 49.727 15.2593 49.9754 14.5468C50.2859 14.725 50.4101 15.3187 50.0375 15.9718C49.3544 17.1 48.1124 18.1093 47.0567 18.9406C46.9946 19.6531 46.6841 20.5437 46.3115 21.1968C47.864 20.1875 49.6649 18.7031 50.4722 17.6937C51.5278 16.3875 51.9625 15.0812 51.7762 13.775C51.8383 12.2906 50.7206 10.8062 50.2859 10.45C49.9754 12.0531 48.2987 14.7843 46.8083 16.3281C46.9325 16.8625 47.0567 17.6343 47.0567 18.2875Z" fill="#13377D"/>
<path d="M46.0631 27.6687C46.3736 28.025 46.6841 28.4406 46.9325 28.7968C48.1124 29.0343 49.5407 28.975 49.5407 28.975C49.5407 28.975 49.4786 29.5687 48.6713 29.6281C48.2987 29.6281 47.1809 29.45 46.7462 29.3312C46.5599 29.3906 45.6906 29.6281 44.8212 29.7468C46.0631 30.1624 47.864 30.5781 48.9818 30.5781C49.106 30.5781 49.1681 30.5781 49.2923 30.5781C51.0932 30.3999 52.0247 28.7968 52.0868 27.9062C51.5279 28.025 50.5964 28.0843 49.6649 28.0843C48.7955 28.0843 47.243 28.025 46.0631 27.6687Z" fill="#13377D"/>
<path d="M53.5772 23.1562C51.9626 23.9875 49.106 24.8187 46.8084 24.8187C47.3673 25.175 47.9262 25.5312 48.2987 25.8875C49.2302 25.8281 50.5343 25.5312 51.2795 25.2937C51.2795 25.4125 51.2795 26.0062 50.4101 26.2437C49.7891 26.4219 48.9197 26.4219 48.2367 26.4219C47.6778 26.7781 46.8705 27.075 46.1874 27.3125C46.8084 27.3719 47.6157 27.4312 48.2987 27.4312C49.4786 27.4312 50.5964 27.3125 51.2795 27.075C51.9005 26.8969 53.9498 26.0656 53.5772 23.1562Z" fill="#13377D"/>
<path d="M44.8832 31.35C45.5663 31.6469 46.3115 31.8844 46.9325 31.9437C46.9325 31.9437 46.8083 32.5375 45.8768 32.4187C45.3179 32.3594 44.6969 31.9437 44.5727 31.8844C44.138 31.9437 43.2686 31.9437 42.9581 31.8844C44.0138 32.5969 45.6284 33.4281 46.9946 33.5469C47.0567 33.5469 47.1188 33.5469 47.1809 33.5469C48.6091 33.5469 49.7269 32.1812 50.0374 31.5281C48.6091 31.5281 46.1252 30.9344 44.6348 30.1625C44.6969 30.4 44.8211 30.875 44.8832 31.35Z" fill="#13377D"/>
<path d="M42.3993 33.1906C42.7719 33.6062 43.3929 33.8437 43.3929 33.8437C43.3929 33.8437 43.2066 34.1406 42.834 34.1406C42.7098 34.1406 42.5856 34.0812 42.4614 34.0218C42.213 33.9031 41.8404 33.4875 41.8404 33.4875C41.3436 33.4281 40.9089 33.3687 40.4742 33.25C41.2194 34.1406 42.4614 35.2687 43.8276 35.5656C44.0139 35.625 44.2002 35.625 44.4486 35.625C45.6285 35.625 46.6221 34.7937 46.8705 34.2593C45.5043 34.0812 43.5171 33.0718 42.5235 32.1218C42.5235 32.4781 42.4614 32.8937 42.3993 33.1906Z" fill="#13377D"/>
<path d="M33.5191 47.7375C34.2022 47.7375 34.6369 47.5 34.9474 46.8468C34.0159 47.2625 33.0224 47.025 31.1594 46.4906C31.1594 46.4906 30.4763 46.7875 30.0416 46.8468C31.1594 47.1437 32.774 47.6781 33.0224 48.2718C33.1465 48.7468 32.8361 48.8656 32.8361 48.8656C32.2151 48.1531 31.4699 47.7375 29.8553 47.2625C29.8553 47.5593 29.7932 47.7375 29.7932 47.7375C29.7932 47.7375 29.4827 47.7968 28.7375 47.6781C29.3585 48.1531 30.8489 49.4 31.0352 50.7062C31.1594 51.5968 30.4763 51.6562 30.4763 51.6562C30.4142 50.2906 29.7932 49.4593 28.427 48.0937C28.427 48.0937 28.1786 48.3906 27.9302 48.5687C27.9302 48.5687 27.4334 48.5093 27.0608 48.2125C27.2471 49.9937 27.3092 54.2687 27.185 54.9218C27.1229 55.3968 26.8124 55.6343 26.8124 55.6343C26.8124 55.6343 26.5019 55.4562 26.4398 54.9218C26.3156 54.2093 26.4398 49.9343 26.564 48.2125C26.1293 48.45 25.6947 48.5687 25.6947 48.5687C25.3842 48.3906 25.1979 48.0937 25.1979 48.0937C23.8938 49.4593 23.2728 50.35 23.1486 51.6562C23.1486 51.6562 22.5276 51.5968 22.5897 50.7062C22.776 49.4 24.2664 48.1531 24.8874 47.6781C24.2043 47.7968 23.8317 47.7375 23.8317 47.7375C23.8317 47.7375 23.7696 47.5593 23.7696 47.2625C22.155 47.7375 21.4719 48.1531 20.7888 48.8656C20.7888 48.8656 20.4783 48.8062 20.6025 48.2718C20.8509 47.6781 22.4655 47.2031 23.5833 46.8468C23.2107 46.7875 22.4655 46.4906 22.4655 46.4906C20.6646 47.025 19.6089 47.2625 18.6775 46.8468C18.9259 47.5 19.4226 47.7375 20.1057 47.7375C19.2363 48.0343 18.4291 48.8656 18.1807 49.6968C18.8017 51.8937 20.7888 52.5468 20.7888 52.5468C20.292 51.4781 20.4783 49.4 23.4591 47.975C21.6582 49.6968 20.913 51.3 21.4098 52.7843C21.8445 54.15 23.3349 54.6843 24.3906 54.7437C23.6454 52.4875 23.9559 50.4093 25.5705 48.8062C24.8874 50.5875 23.8938 56.1093 26.6882 57C29.4827 56.1093 28.4891 50.5875 27.806 48.8062C29.4206 50.4687 29.7311 52.4875 28.9859 54.7437C30.1037 54.7437 31.532 54.15 31.9667 52.7843C32.4635 51.3 31.7804 49.6968 29.9174 47.975C32.8982 49.4 33.0844 51.5375 32.5877 52.5468C32.5877 52.5468 34.5748 51.8937 35.1958 49.6968C35.1958 48.8656 34.3264 48.0937 33.5191 47.7375Z" fill="#13377D"/>
<path d="M14.2683 36.3968C14.8893 36.0406 15.2619 35.3281 15.6966 34.4968C15.4482 34.6156 15.0756 34.7343 14.703 34.7937C14.3304 35.4468 13.8336 35.2093 13.8336 35.0906C13.9578 34.9718 14.082 34.7937 14.1441 34.675C14.0199 34.3781 13.8336 33.9625 13.7094 33.725C13.2127 34.7937 12.2191 35.8031 11.4739 36.2187C11.9086 36.8125 13.3369 36.9312 14.2683 36.3968Z" fill="#13377D"/>
<path d="M7.06532 24.4032C6.00963 23.75 5.32654 23.1563 4.95395 22.6219C4.08456 22.325 2.96677 21.7907 2.46998 21.375C1.72479 20.7813 1.97319 20.2469 2.03529 20.1282C2.65628 20.7813 4.08456 21.6719 5.14024 22.0875C5.76123 21.85 6.63062 21.6719 7.50001 21.5532C4.95395 20.6625 2.22158 18.8219 0.793303 17.1594C0.482807 17.6938 -0.697076 20.2469 1.53849 22.325C2.65628 23.3344 5.07814 24.1063 7.06532 24.4032Z" fill="#13377D"/>
<path d="M7.4996 21.1375C7.127 20.4844 6.81651 19.6531 6.75441 18.8812C5.69872 18.1094 4.51884 17.1 3.77365 15.9125C3.40105 15.2594 3.52525 14.6656 3.83575 14.4875C4.08414 15.2 5.45033 17.2187 6.75441 18.2281C6.75441 17.575 6.8786 16.8031 7.0649 16.2687C5.57452 14.725 3.83575 11.9937 3.58735 10.3906C3.15266 10.7469 2.03487 12.2313 2.09697 13.7156C1.91067 15.0219 2.34537 16.3281 3.40105 17.6344C4.14624 18.6437 5.94712 20.1875 7.4996 21.1375Z" fill="#13377D"/>
<path d="M6.87863 28.7968C7.06493 28.4406 7.43752 28.025 7.74802 27.6687C6.56813 27.9656 5.01565 28.025 4.20837 28.025C3.21478 28.025 2.28329 27.9656 1.7865 27.8468C1.8486 28.7968 2.78009 30.4 4.58096 30.5187C4.70516 30.5187 4.76726 30.5187 4.89146 30.5187C6.00924 30.5187 7.81012 30.1031 9.0521 29.6875C8.18271 29.5687 7.31332 29.3906 7.12703 29.2718C6.63023 29.5093 5.51245 29.6875 5.13985 29.6281C4.33256 29.5687 4.27046 28.975 4.27046 28.975C4.27046 28.975 5.69875 29.0343 6.87863 28.7968Z" fill="#13377D"/>
<path d="M2.5318 27.1343C3.2149 27.3718 4.27058 27.4906 5.51256 27.4906C6.25775 27.4906 7.00294 27.4312 7.62393 27.3718C6.94084 27.1343 6.13355 26.8374 5.57466 26.4812C4.89157 26.4812 3.96008 26.4218 3.40119 26.3031C2.5318 26.0656 2.5318 25.4718 2.5318 25.3531C3.27699 25.6499 4.58108 25.9468 5.51256 25.9468C5.88516 25.6499 6.38195 25.2343 7.00294 24.8781C4.76737 24.8781 1.84871 24.0468 0.234137 23.2156C-0.138458 26.0656 1.91081 26.8968 2.5318 27.1343Z" fill="#13377D"/>
<path d="M6.69225 33.4875C6.75435 33.4875 6.81645 33.4875 6.87855 33.4875C8.24473 33.3687 9.85931 32.5375 10.915 31.825C10.6045 31.8843 9.67301 31.8843 9.30042 31.825C9.17622 31.9437 8.49313 32.3 7.99634 32.3593C7.00275 32.4781 6.94065 31.8843 6.94065 31.8843C7.56164 31.825 8.30683 31.5875 8.98992 31.2906C9.05202 30.8156 9.17622 30.3406 9.30042 30.0437C7.74794 30.875 5.26397 31.4687 3.83569 31.4687C4.14619 32.1218 5.26397 33.4875 6.69225 33.4875Z" fill="#13377D"/>
<path d="M9.36254 35.625C9.54884 35.625 9.79723 35.625 9.98353 35.5656C11.2876 35.2687 12.5917 34.1406 13.3369 33.25C12.9022 33.3687 12.4675 33.4875 11.9707 33.4875C11.9707 33.4875 11.6602 33.8437 11.3497 34.0218C11.2255 34.0812 11.1013 34.1406 10.9771 34.1406C10.6045 34.1406 10.4182 33.8437 10.4182 33.8437C10.4182 33.8437 11.0392 33.5468 11.4118 33.1906C11.3497 32.8937 11.2876 32.4781 11.2876 32.1218C10.2319 33.1312 8.30685 34.0812 6.94067 34.2593C7.18907 34.7937 8.12056 35.625 9.36254 35.625Z" fill="#13377D"/>
<path d="M26.3777 3.14688C26.3777 3.44375 26.6261 3.62188 26.8745 3.62188C27.1229 3.62188 27.3713 3.38438 27.3713 3.14688C27.3713 2.85 27.1229 2.67188 26.8745 2.67188C26.6261 2.6125 26.3777 2.85 26.3777 3.14688Z" fill="#13377D"/>
<path d="M26.564 2.07812H27.247L27.1849 1.24687L27.9301 1.36563V0.7125L27.1849 0.771875L27.247 0H26.564L26.626 0.771875L25.8809 0.7125V1.36563L26.626 1.24687L26.564 2.07812Z" fill="#13377D"/>
<path d="M24.1422 9.91558C24.2043 9.91558 24.3285 9.97495 24.3906 9.97495H29.3585C29.4827 9.97495 29.5448 9.97495 29.6069 9.91558C29.7932 9.8562 29.8553 9.73745 29.9174 9.55933H23.8317C23.8938 9.79683 24.018 9.8562 24.1422 9.91558Z" fill="#13377D"/>
<path d="M29.6068 9.20315C29.6689 9.20315 29.6689 9.14378 29.6689 9.14378V8.78752C29.6689 8.72815 29.6068 8.72815 29.6068 8.72815H24.2042C24.1421 8.72815 24.1421 8.78752 24.1421 8.78752V9.14378C24.1421 9.20315 24.2042 9.20315 24.2042 9.20315H29.6068Z" fill="#13377D"/>
<path d="M30.1658 8.31248C30.29 8.13435 30.9731 6.88748 30.9731 5.58123C30.9731 4.39373 29.4206 3.7406 28.5512 3.7406C28.427 5.4031 27.7439 8.0156 26.8745 8.0156C26.0673 8.0156 25.3221 5.4031 25.1979 3.7406C24.2664 3.7406 22.776 4.39373 22.776 5.58123C22.776 6.88748 23.4591 8.19373 23.5833 8.31248H30.1658Z" fill="#13377D"/>
<path d="M26.8745 7.18435C27.3092 7.18435 27.806 5.93748 27.9923 4.6906C27.9923 4.4531 27.5576 4.09685 26.8745 4.03748C26.1914 4.03748 25.7567 4.39373 25.7567 4.6906C25.943 5.81873 26.5019 7.18435 26.8745 7.18435Z" fill="#13377D"/>
<path d="M34.7611 26.6594C34.7611 26.4813 34.6369 26.3625 34.4506 26.3625H19.3605C19.1742 26.3625 19.05 26.4813 19.05 26.6594V36.575V36.6344V36.6938C19.05 36.6938 19.05 37.2282 19.2984 37.8219C19.6089 38.5344 20.913 39.7219 22.5276 40.5532C24.8253 41.6813 26.1915 42.5719 26.8745 43.1063C27.5576 42.5719 28.9238 41.6813 31.2215 40.5532C32.8982 39.7219 34.1401 38.5344 34.4506 37.8219C34.7611 37.1688 34.699 36.6938 34.699 36.6938L34.7611 26.6594ZM29.669 30.2813V30.3407C29.8553 31.0532 30.0416 31.825 30.1037 32.5375C30.7247 33.0125 31.2836 33.4875 31.7804 33.9625C32.7119 32.9532 33.2087 32.0032 33.2087 31.2313C32.774 31.2313 32.4014 30.875 32.4014 30.4594C32.4014 30.2813 32.4635 30.1625 32.5256 30.0438C32.0909 29.8657 31.5941 29.8063 31.1594 29.8063C30.7868 29.8063 30.4142 29.8657 29.9795 29.925H29.9174L29.7932 29.9844L29.8553 29.925C29.9174 29.8063 29.9174 29.7469 29.9795 29.6282C31.2215 29.3907 32.2151 29.5094 32.8361 29.8657C32.9603 29.8063 33.0845 29.7469 33.2087 29.7469C33.6434 29.7469 34.0159 30.1032 34.0159 30.5188C34.0159 30.8157 33.8296 31.0532 33.5813 31.1719C33.5813 32.0032 33.0845 33.0719 32.0288 34.2594C32.0909 34.3188 32.153 34.3782 32.2151 34.4375C32.2772 34.4969 32.2772 34.4969 32.3393 34.5563V34.6157C32.2772 34.675 32.2151 34.7344 32.153 34.7938H32.0909C32.0909 34.7938 32.0909 34.7938 32.0288 34.7938C31.9667 34.7344 31.9667 34.7344 31.9667 34.675C31.9046 34.6157 31.9046 34.5563 31.8425 34.4969C31.7183 34.6157 31.5941 34.7344 31.4699 34.8532L31.3457 35.0313C31.1594 35.15 30.9731 35.2094 30.8489 35.15H30.7868L30.8489 35.0907C31.1594 34.8532 31.4078 34.5563 31.6562 34.3782C31.2836 33.9625 30.7868 33.5469 30.29 33.1313C30.3521 33.5469 30.3521 33.9625 30.3521 34.3782C30.3521 34.7344 30.3521 35.15 30.29 35.5657C30.2279 35.625 30.1037 35.6844 30.0416 35.7438L29.9795 35.8032V35.7438C30.0416 35.2688 30.0416 34.7938 30.0416 34.3782C30.0416 34.2594 30.0416 34.0813 30.0416 33.9625V33.8438C30.0416 33.5469 29.9795 32.7157 29.9174 32.1813C29.8553 31.7063 29.7311 31.2313 29.6069 30.7563V30.6969C29.669 30.6375 29.7311 30.5782 29.7932 30.5188L29.669 30.2813ZM24.5769 29.2125C25.1979 27.7875 26.0673 27.0157 26.9366 27.0157C27.806 27.0157 28.6754 27.7875 29.2964 29.2125V29.2719H29.2343C29.1722 29.2719 29.1101 29.3313 28.9859 29.3907H28.9238V29.3313C28.3649 28.0844 27.6197 27.3719 26.8745 27.3719C26.1294 27.3719 25.3842 28.0844 24.8253 29.3313V29.3907H24.7632C24.7011 29.2719 24.5769 29.2719 24.5769 29.2125ZM24.3285 29.5688C24.5148 29.6875 25.0737 29.9844 25.6947 29.8063C26.2536 29.6282 26.8745 29.6282 26.8745 29.6282C26.8745 29.6282 27.5576 29.6282 28.0544 29.8063C28.6754 29.9844 29.2343 29.6875 29.4206 29.5688C29.4827 29.5688 29.4827 29.5688 29.4827 29.6282C29.4206 29.8657 29.2343 30.4594 28.3028 30.6969C27.4334 30.875 26.9987 31.825 26.8745 32.2407C26.8745 32.3 26.8124 32.3 26.7503 32.2407C26.6261 31.825 26.1915 30.875 25.3221 30.6969C24.3906 30.5188 24.2043 29.8657 24.1422 29.6282C24.2664 29.5688 24.3285 29.5688 24.3285 29.5688ZM25.8189 31.9438C25.9431 31.9438 26.1294 31.8844 26.2536 31.825C26.3156 31.9438 26.3777 32.1219 26.4398 32.2407C26.2536 32.3594 26.0673 32.4188 25.8189 32.4188C25.1358 32.4188 24.639 31.8844 24.639 31.2907C24.639 31.1125 24.7011 30.9938 24.7632 30.875C24.8874 30.9344 25.0116 30.9938 25.1979 31.0532C25.1358 31.1125 25.1358 31.2313 25.1358 31.2907C25.0737 31.6469 25.4463 31.9438 25.8189 31.9438ZM25.5084 31.2313C25.5084 31.1719 25.5084 31.1719 25.5084 31.1125C25.6947 31.1719 25.881 31.35 26.0052 31.4688C25.9431 31.5282 25.881 31.5282 25.8189 31.5282C25.6326 31.5282 25.5084 31.4094 25.5084 31.2313ZM25.8189 32.775C26.0673 32.775 26.3777 32.7157 26.6261 32.5375C26.6882 32.5969 26.8124 32.8344 26.8745 32.8344C26.9987 32.8344 27.0608 32.5969 27.1229 32.5375C27.3713 32.6563 27.6818 32.775 27.9302 32.775C28.3649 32.775 28.7375 32.5969 29.048 32.3594C29.048 32.3594 29.048 32.3594 29.048 32.4188C29.1722 32.8938 29.2343 33.4875 29.1722 33.725C29.1722 33.9625 29.048 34.2 28.9859 34.4375C28.8617 34.7344 28.7996 34.9719 28.7996 34.9719C28.7996 34.9719 28.7996 35.0313 28.7375 35.15C28.6754 35.3875 28.4891 35.8032 28.2407 36.2188C27.7439 35.9219 27.2471 35.8032 26.6261 35.8032C26.0673 35.8032 25.5705 35.9219 25.1358 36.1594C24.9495 35.7438 24.7632 35.3875 24.7011 35.2094C24.639 35.0907 24.639 35.0313 24.639 35.0313C24.639 35.0313 24.5148 34.7938 24.3906 34.4375C24.3285 34.2594 24.2664 34.0219 24.2664 33.7844C24.2664 33.6063 24.2043 33.0125 24.3906 32.4782C24.3906 32.4188 24.4527 32.3594 24.4527 32.3C24.8874 32.5375 25.3842 32.775 25.8189 32.775ZM27.9923 31.9438C28.427 31.9438 28.7375 31.6469 28.7375 31.2313C28.7375 31.1125 28.7375 31.0532 28.6754 30.9938C28.7996 30.9344 28.9859 30.875 29.1101 30.8157C29.1722 30.9344 29.2343 31.1125 29.2343 31.2313C29.2343 31.8844 28.6754 32.3594 28.0544 32.3594C27.806 32.3594 27.6197 32.3 27.4334 32.1813C27.4955 32.0625 27.5576 31.9438 27.6197 31.7657C27.6818 31.8844 27.8681 31.9438 27.9923 31.9438ZM27.806 31.4688C27.9302 31.2907 28.1165 31.1719 28.3028 31.1125C28.3028 31.1719 28.3028 31.1719 28.3028 31.2313C28.3028 31.4094 28.1786 31.5282 27.9923 31.5282C27.9302 31.5282 27.8681 31.5282 27.806 31.4688ZM20.6025 29.8063C20.7888 29.8063 20.913 29.8657 21.0372 29.925C21.4719 29.6875 21.9687 29.5688 22.6518 29.5688C23.0244 29.5688 23.397 29.6282 23.8317 29.6875H23.8938C23.8938 29.7469 23.9559 29.8657 24.018 29.9844L24.0801 30.0438L23.9559 29.9844C23.8938 29.9844 23.8938 29.9844 23.8317 29.9844C23.4591 29.925 23.0865 29.8657 22.7139 29.8657C22.2792 29.8657 21.7203 29.925 21.3477 30.1625C21.4098 30.2813 21.4719 30.4 21.4719 30.5782C21.4719 30.9938 21.0993 31.35 20.6646 31.35C20.6646 32.0625 21.1614 33.0125 22.0929 34.0813C22.5897 33.6063 23.1486 33.0719 23.7696 32.6563C23.8317 31.9438 24.018 31.1719 24.2043 30.4594V30.4L24.2664 30.4594C24.3285 30.5188 24.3906 30.5782 24.4527 30.6375C24.4527 30.6375 24.4527 30.6375 24.5148 30.6969V30.7563C24.3906 31.2313 24.2664 31.6469 24.2043 32.1219V32.1813C24.1422 32.5375 24.0801 33.0125 24.0801 33.4875C24.0801 33.8438 24.018 34.1407 24.018 34.3782C24.018 34.7344 24.018 35.0907 24.0801 35.5657V35.625H24.018C23.8938 35.5657 23.8317 35.5657 23.7696 35.5657H23.7075V35.5063C23.7075 35.2094 23.6454 34.7938 23.6454 34.3782C23.6454 33.9625 23.6454 33.5469 23.7075 33.1313C23.2107 33.5469 22.7139 33.9625 22.3413 34.3782C22.6518 34.7344 23.0865 35.0907 23.5833 35.5063L23.6454 35.5657H23.5833C23.4591 35.625 23.2728 35.625 23.1486 35.5657C22.776 35.2094 22.4655 34.9719 22.155 34.675C22.0929 34.7344 22.0308 34.7938 22.0308 34.8532L21.9687 34.9125C21.9066 34.9125 21.8445 34.9719 21.7203 35.0313L21.6582 34.9719C21.6582 34.9719 21.5961 34.9719 21.5961 34.9125H21.534V34.8532C21.6582 34.675 21.7824 34.5563 21.9066 34.4375C20.8509 33.3094 20.3541 32.2407 20.3541 31.4094C20.1057 31.2907 19.9194 31.0532 19.9194 30.7563C19.7952 30.1625 20.1678 29.8063 20.6025 29.8063ZM29.4206 39.0094C28.9859 40.1969 28.3649 41.0282 27.6818 41.3844C27.6197 41.7407 27.3092 42.0375 26.9366 42.0375C26.564 42.0375 26.2536 41.7407 26.1915 41.3844C25.5084 41.0282 24.8874 40.2563 24.4527 39.0688V39.0094L24.8253 38.8907V38.95C25.1979 39.9594 25.6947 40.6719 26.2536 41.0282C26.3777 40.7313 26.6261 40.4938 26.9987 40.4938C27.3713 40.4938 27.6197 40.7313 27.7439 40.9688C28.3028 40.6125 28.7996 39.9 29.1722 38.95V38.8907H29.2343C29.2343 38.95 29.2964 38.95 29.4206 39.0094ZM26.2536 38.95C26.2536 38.7125 26.3156 38.0594 26.4398 37.8219C26.564 37.7625 26.7503 37.7032 26.9366 37.7032C27.1229 37.7032 27.3092 37.7625 27.4955 37.8813C27.5576 38.1188 27.6818 38.7125 27.6818 38.95C27.6818 39.1875 27.0608 39.3657 26.9987 39.425C26.8124 39.3657 26.2536 39.2469 26.2536 38.95ZM34.2022 36.575C34.1401 36.6344 34.078 36.6938 34.0159 36.6938C33.9538 36.6938 33.8917 36.7532 33.7675 36.7532H33.7054C33.5813 36.7532 33.4571 36.7532 33.395 36.6938C33.3329 36.6938 33.3329 36.6344 33.2708 36.6344C33.0845 36.6344 32.6498 36.7532 32.5256 36.8125C32.5877 36.8125 33.1466 36.8719 33.5192 37.1688C33.7055 37.2875 34.078 37.3469 34.2022 37.3469C34.2022 37.4063 33.5813 37.8219 32.4014 37.5844L32.0909 37.525C31.532 37.4063 31.0352 37.3469 30.4763 37.3469C30.5384 37.3469 30.6005 37.4063 30.6005 37.4063C30.7247 37.4657 30.911 37.525 31.0352 37.5844C31.0352 37.5844 31.0973 37.5844 31.0973 37.6438H31.1594C31.2215 37.6438 31.2836 37.6438 31.2836 37.7032C31.3457 37.7032 31.4078 37.7625 31.4699 37.7625C31.532 37.8219 31.6562 37.8813 31.6562 37.9407C31.6562 38 31.7183 38 31.7183 38.0594C31.7183 38.1782 31.7183 38.2375 31.6562 38.3563C31.4699 38.5938 31.2215 38.5938 30.9731 38.3563L30.911 38.2969C30.8489 38.2375 30.7868 38.1782 30.7247 38.0594V38C30.7247 38 30.7247 38 30.6626 38C30.5384 37.9407 30.4763 37.8219 30.3521 37.8219C30.1658 37.7625 29.9174 37.7032 29.7311 37.6438C29.669 37.6438 29.6069 37.6438 29.5448 37.6438C29.7311 37.7625 29.9174 37.8813 29.9795 38C29.9795 38 29.9795 38 29.9795 38.0594C30.1037 38.2375 30.1037 38.4157 30.1658 38.5938C30.3521 38.95 30.4142 39.0094 30.6005 39.1282C30.4142 39.1875 29.4827 39.1875 29.048 38.5344C29.048 38.5344 28.9859 38.475 28.9859 38.4157C28.8617 38.1782 28.7996 37.9407 28.7375 37.7625C28.6754 37.5844 28.7996 37.4063 28.6754 37.3469C28.5512 37.2875 28.4891 37.3469 28.4891 37.3469C28.427 37.4063 28.427 37.4063 28.427 37.4063V37.4657C28.427 37.525 28.3649 37.525 28.3649 37.525V37.5844C28.3649 37.5844 28.3649 37.6438 28.3028 37.6438C28.3028 37.6438 28.3028 37.6438 28.2407 37.6438C28.1786 37.6438 28.1786 37.6438 28.1165 37.6438C28.1165 37.6438 28.1165 37.6438 28.0544 37.6438C28.0544 37.6438 27.9923 37.6438 27.9923 37.7032C27.9302 37.7032 27.8681 37.7625 27.806 37.7625C27.7439 37.7625 27.6818 37.7032 27.6818 37.6438C27.6818 37.5844 27.6818 37.5844 27.6818 37.525C27.6197 37.525 27.6197 37.525 27.5576 37.525C27.4955 37.525 27.4955 37.525 27.4334 37.4657C27.4334 37.4063 27.4334 37.3469 27.4334 37.3469C27.4334 37.2875 27.4334 37.2875 27.4334 37.2875C27.3713 37.3469 27.3713 37.3469 27.3092 37.3469C27.2471 37.3469 27.2471 37.3469 27.185 37.3469C27.1229 37.3469 27.1229 37.2875 27.1229 37.2282V37.1688C27.1229 37.1688 27.1229 37.1688 27.1229 37.1094C27.1229 37.1094 27.1229 37.1094 27.0608 37.1094H26.9987C26.9366 37.1094 26.8124 37.05 26.7503 37.05C26.7503 37.05 26.7503 37.05 26.6882 37.05C26.6261 37.05 26.5019 37.1094 26.4398 37.1094H26.3777H26.3156C26.3156 37.1094 26.3156 37.1094 26.3156 37.05C26.3156 37.05 26.3156 37.05 26.3156 36.9907L26.3777 36.9313C26.3777 36.9313 26.3777 36.9313 26.3777 36.8719C26.3157 36.8719 26.3156 36.8719 26.2536 36.8719V36.9313C26.2536 36.9313 26.2536 36.9313 26.1915 36.9313V36.9907V37.05C26.1915 37.1094 26.1915 37.1688 26.1294 37.1688C26.0673 37.2282 26.0673 37.2282 26.0052 37.1688C26.0052 37.1688 25.9431 37.1688 25.9431 37.1094C25.9431 37.1094 25.881 37.1094 25.881 37.05C25.881 37.05 25.881 37.1094 25.9431 37.1094C25.9431 37.1688 25.9431 37.1688 25.9431 37.2282C25.881 37.2875 25.881 37.2875 25.8189 37.2875H25.7568H25.6947C25.6947 37.3469 25.7568 37.3469 25.6947 37.4063C25.6947 37.4657 25.6326 37.4657 25.5705 37.4657C25.5084 37.4657 25.5084 37.4657 25.4463 37.4657C25.4463 37.4657 25.4463 37.4657 25.3842 37.4657H25.3221L25.26 37.4063C25.26 37.4063 25.1979 37.4063 25.1358 37.4063C25.1358 37.4063 25.0737 37.4063 25.0737 37.3469L25.0116 37.2875V37.2282C24.8874 37.1094 24.7011 37.525 24.7011 37.525C24.1422 38.6532 22.776 38.8907 22.776 38.8313C22.776 38.8313 23.0865 38.7125 23.2107 38.2969C23.2728 38.0594 23.2728 38 23.397 37.7625C23.397 37.7032 23.4591 37.7032 23.4591 37.6438C23.5212 37.525 23.7075 37.4657 23.8317 37.3469C23.7696 37.3469 23.7075 37.3469 23.6454 37.3469C23.4591 37.4063 23.2728 37.4063 23.0244 37.525C22.9002 37.5844 22.8381 37.6438 22.7139 37.7032C22.7139 37.7032 22.7139 37.7032 22.6518 37.7032V37.7625C22.6518 37.8219 22.5897 37.8813 22.5276 38L22.4655 38.0594C22.2171 38.2969 22.0308 38.2969 21.7824 38.0594L21.7203 38C21.6582 37.9407 21.6582 37.8219 21.7203 37.7625C21.7203 37.7032 21.7824 37.6438 21.8445 37.5844C21.9066 37.525 21.9687 37.525 22.0308 37.4657C22.0929 37.4063 22.155 37.4063 22.2171 37.4063C22.2792 37.4063 22.2792 37.4063 22.3413 37.3469C22.3413 37.3469 22.4034 37.3469 22.4655 37.3469C22.4655 37.3469 22.4655 37.2875 22.5276 37.2875C22.5897 37.2875 22.6518 37.2282 22.7139 37.2282C22.776 37.2282 22.8381 37.1688 22.9002 37.1688C22.9002 37.1688 22.9623 37.1688 23.0244 37.1094C22.5276 37.1094 22.0308 37.1688 21.4719 37.2875C21.4098 37.2875 21.2856 37.3469 21.1614 37.3469C20.5404 37.4657 19.3605 37.1688 19.3605 37.1094C19.3605 37.05 19.671 37.05 19.9815 36.8719C20.2299 36.7532 20.3541 36.6344 20.5404 36.575C20.8509 36.8125 21.2235 36.8125 21.2856 36.8125C21.1614 36.7532 20.6025 36.6938 20.4162 36.6344C20.4162 36.6344 20.3541 36.6938 20.292 36.6938C20.1678 36.7532 20.0436 36.7532 19.9194 36.7532C19.8573 36.7532 19.7331 36.7532 19.671 36.6938C19.6089 36.6938 19.5468 36.6344 19.4847 36.575C19.4226 36.5157 19.4226 36.4563 19.4226 36.2782C19.4847 36.0407 19.7331 35.9219 20.0436 35.9813C20.2299 36.0407 20.3541 36.1 20.4162 36.1594L20.4783 36.2188C20.6646 36.2188 20.913 36.3375 21.1614 36.3969C21.4098 36.5157 21.5961 36.575 21.7203 36.575C21.6582 36.575 21.5961 36.5157 21.534 36.5157C21.4719 36.5157 21.4098 36.4563 21.4098 36.4563C21.3477 36.3969 21.2856 36.3969 21.2235 36.3375C20.8509 36.1594 20.4783 35.9813 20.2299 35.7438C20.0436 35.5063 19.9815 35.3875 19.9194 35.15C19.8573 34.6157 19.6089 34.3782 19.6089 34.3188C19.671 34.2594 20.5404 34.675 20.8509 34.9719C21.0372 35.2094 21.0993 35.3875 21.1614 35.5657V35.625C21.2235 35.8032 21.4098 35.9813 21.7203 36.1594C21.7824 36.1594 21.7824 36.2188 21.8445 36.2188C21.7824 36.1 21.7203 36.0407 21.6582 35.9219V35.8625L21.5961 35.8032C21.5961 35.8032 21.534 35.7438 21.534 35.6844C21.4719 35.625 21.4719 35.5657 21.4098 35.5063C21.3477 35.3282 21.3477 35.15 21.4098 35.0907C21.4719 35.0313 21.534 34.9719 21.6582 34.9125C21.9066 34.8532 22.0929 34.9719 22.155 35.3282C22.155 35.3875 22.155 35.4469 22.155 35.5063C22.155 35.5657 22.155 35.625 22.155 35.6844V35.7438C22.155 35.7438 22.155 35.7438 22.155 35.8032C22.2792 36.1594 22.5897 36.4563 22.9623 36.6938C22.5276 36.3375 22.2792 35.5063 22.3413 35.5063C22.4034 35.4469 22.776 35.6844 23.1486 35.8625C23.3349 35.9219 23.5212 36.0407 23.7075 36.1594C23.8317 36.2188 23.9559 36.3375 24.018 36.3969C24.1422 36.4563 24.2043 36.575 24.2664 36.6344C24.3285 36.6938 24.3906 36.7532 24.4527 36.8125C24.5148 36.8719 24.5148 36.8719 24.5769 36.9313C24.7011 36.9907 24.8874 36.9313 24.8874 36.9313C24.9495 36.9313 25.0116 36.9313 25.0737 36.8719C25.0737 36.8719 25.0737 36.8719 25.1358 36.8125C25.1979 36.7532 25.26 36.7532 25.3221 36.7532V36.6938C25.3221 36.575 25.3842 36.5157 25.5084 36.4563C25.5084 36.4563 25.5705 36.4563 25.5705 36.3969H25.6326H25.6947H25.7568C25.7568 36.3375 25.8189 36.3375 25.881 36.2782C26.0052 36.2188 26.1915 36.2188 26.3156 36.3375C26.3777 36.3969 26.3777 36.4563 26.4398 36.5157V36.575C26.4398 36.6344 26.4398 36.6344 26.4398 36.6938C26.4398 36.7532 26.4398 36.7532 26.4398 36.8125C26.5019 36.8125 26.6261 36.8125 26.6882 36.8125C26.7503 36.8125 26.7503 36.8125 26.8124 36.8125C26.8745 36.8125 26.9366 36.8125 26.9987 36.8719C27.0608 36.8719 27.1229 36.8125 27.185 36.8125C27.2471 36.8125 27.2471 36.8125 27.3092 36.8125H27.3713C27.3713 36.7532 27.3713 36.6938 27.3713 36.6344C27.3713 36.575 27.3713 36.5157 27.4334 36.4563C27.4334 36.4563 27.4334 36.3969 27.4955 36.3969L27.5576 36.3375C27.6818 36.2782 27.806 36.2782 27.9302 36.3375C27.9923 36.3375 27.9923 36.3969 28.0544 36.4563C28.1165 36.4563 28.1165 36.4563 28.1786 36.4563H28.2407H28.3028C28.427 36.5157 28.4891 36.575 28.4891 36.6938C28.4891 36.6938 28.4891 36.6938 28.5512 36.6938H28.6133C28.6133 36.6938 28.9238 36.6938 28.9859 36.7532H29.2964C29.3585 36.6938 29.3585 36.6938 29.4206 36.6344C29.4827 36.575 29.6069 36.4563 29.669 36.3969C29.7932 36.3375 29.8553 36.2188 29.9795 36.1594C30.1658 36.0407 30.4142 35.9813 30.6005 35.9219C31.2215 35.6844 31.2836 35.3282 31.3457 35.3282C31.4078 35.3875 31.2215 36.3375 30.7868 36.6938C31.0973 36.4563 31.4078 36.1594 31.5941 35.8032C31.5941 35.8032 31.5941 35.8032 31.5941 35.7438V35.6844C31.5941 35.625 31.5941 35.5657 31.5941 35.5063C31.5941 35.4469 31.5941 35.3875 31.5941 35.3282C31.7183 35.0313 31.8425 34.8532 32.0909 34.9125C32.2151 34.9719 32.2772 35.0313 32.3393 35.0907C32.4014 35.2094 32.4014 35.3282 32.3393 35.5063C32.3393 35.5657 32.2772 35.625 32.2151 35.6844C32.153 35.7438 32.153 35.7438 32.0909 35.8032L32.0288 35.8625V35.9219C31.9667 36.0407 31.9046 36.1 31.7804 36.2188C31.8425 36.1594 31.8425 36.1594 31.9046 36.1C32.2151 35.8625 32.4014 35.6844 32.4635 35.5063C32.5256 35.3282 32.5877 35.15 32.774 34.9125C33.0845 34.6157 33.1466 34.4969 33.4571 34.3188C33.5192 34.2594 33.9538 34.2 34.0159 34.2C34.078 34.2594 33.7054 34.3782 33.5813 34.9719C33.5192 35.15 33.4571 35.4469 33.2708 35.6844C33.0224 35.9813 32.774 36.0407 32.4635 36.2188L32.4014 36.2782C32.3393 36.3375 32.2772 36.3375 32.153 36.3969C32.0288 36.4563 31.9667 36.5157 31.9046 36.5157C32.0909 36.4563 32.2772 36.3969 32.5256 36.3375C32.7119 36.2188 32.9603 36.1594 33.2087 36.1594C33.2087 36.1594 33.2087 36.1 33.2708 36.1C33.3329 36.0407 33.4571 35.9813 33.6434 35.9219C33.9538 35.8032 34.2022 35.9219 34.2643 36.2188C34.3264 36.3969 34.2643 36.5157 34.2022 36.575Z" fill="#13377D"/>
<path d="M45.0695 24.6406C46.001 24.225 47.5535 23.2156 48.1745 22.5031C47.3051 22.2063 45.5663 22.0281 44.5727 22.0281C46.622 20.6625 46.6841 17.8125 46.1252 15.7344C45.6284 17.3969 44.3864 18.7625 43.5791 19.5937C43.6412 20.425 43.3928 21.85 42.896 22.6812C43.5791 22.9187 44.3864 23.275 44.9453 23.6906C44.5727 24.1656 43.7654 24.8187 43.2686 25.2344C43.7033 25.65 44.3864 26.4219 44.759 26.8969C44.2622 27.2531 43.2686 27.6094 42.7097 27.7875C42.9581 28.3219 43.3307 29.2125 43.4549 29.8656C42.8339 29.9844 42.0266 30.0437 41.1573 30.0437C41.2194 30.6375 41.0952 31.5875 40.971 32.1812C40.1637 32.1219 39.2322 31.825 38.7975 31.5875C38.5491 32.4187 37.9902 33.25 37.9902 33.3094C37.245 32.4781 36.4998 32.1812 35.8167 32.1812V31.6469C36.4998 31.6469 37.245 31.8844 37.8039 32.4187C38.0523 32.0031 38.3007 31.2312 38.4249 30.7562C38.9217 30.9937 39.729 31.2906 40.4121 31.4094C40.4742 30.8156 40.5363 30.0437 40.4742 29.45C41.1573 29.5094 41.9025 29.5094 42.7097 29.3906C42.5855 28.8562 42.0887 27.9656 41.7783 27.4906C42.4613 27.3125 43.3307 26.9562 43.7654 26.7187C43.3928 26.2437 42.7718 25.5906 42.3371 25.175C42.8339 24.8188 43.6412 24.225 43.9517 23.8687C43.3928 23.5125 42.6476 23.1562 42.0267 22.9187C42.896 21.7906 43.0823 19.475 42.896 18.4062C42.1509 20.8406 39.9153 22.6219 38.5491 23.4531C38.487 23.5125 38.4249 23.5719 38.3628 23.5719C38.3007 23.6312 38.0523 23.9281 38.1765 24.2844C38.1765 24.4031 38.2386 24.4625 38.2386 24.5813C38.3628 25.0562 38.3628 25.7687 37.6176 26.4219C36.9966 26.9562 36.2514 27.0156 35.8167 26.9563V25.65C35.8167 25.4719 35.6925 25.3531 35.5062 25.3531H34.5748L34.1401 24.9375C34.1401 24.9375 34.5748 24.9375 35.0715 24.9375C35.5683 24.8781 36.1272 24.6406 36.1272 24.6406C36.1272 24.6406 35.5683 24.6406 35.3199 24.5813C35.0094 24.6406 34.3264 24.3437 33.7675 23.75C33.5812 23.5125 33.3949 23.275 33.2707 23.0375C32.7739 22.6219 32.215 22.0875 31.8424 21.3156C31.594 20.7813 31.4698 20.0094 31.4077 19.5344C31.2214 19.6531 31.0351 19.8906 30.7867 20.1875C30.352 20.7219 30.1657 21.4938 30.1657 21.4938L29.9794 22.0875L29.6689 21.5531C29.6689 21.5531 29.2342 20.8406 29.1721 19.95C29.1721 19.5344 29.1721 19.1781 29.2342 18.8812C29.11 18.9406 28.9237 19.0594 28.7374 19.1781C27.9922 19.7125 27.5576 20.2469 27.5576 20.2469C27.185 20.7219 26.9366 21.1375 26.8745 21.3156C26.8124 21.0781 26.564 20.7219 26.1914 20.2469C26.1914 20.2469 25.8188 19.6531 25.0115 19.1781C24.8252 19.0594 24.6389 18.9406 24.5147 18.8812C24.5768 19.1781 24.5768 19.5937 24.5768 19.95C24.5147 20.8406 24.08 21.4937 24.08 21.5531L23.7695 22.0281L23.5832 21.4344C23.5832 21.4344 23.3348 20.6625 22.9622 20.1281C22.7138 19.8313 22.5275 19.5937 22.3412 19.475C22.2791 19.95 22.1549 20.7812 21.9065 21.2562C21.5339 22.0281 21.0371 22.6219 20.4783 22.9781C20.3541 23.2156 20.1678 23.4531 19.9815 23.6906C19.4226 24.2844 18.7395 24.5812 18.429 24.6406C18.1806 24.7 17.6217 24.7 17.6217 24.7C17.6217 24.7 18.1806 24.9375 18.6774 24.9969C19.1742 25.0562 19.6089 24.9969 19.6089 24.9969L19.1742 25.4125H18.2427C18.0564 25.4125 17.9322 25.5312 17.9322 25.7094V27.0156C17.4975 27.075 16.6902 27.0156 16.1313 26.4812C15.4482 25.8281 15.3861 25.1156 15.5103 24.6406C15.5724 24.5812 15.5724 24.4625 15.5724 24.3437C15.6966 23.9875 15.4482 23.6906 15.3861 23.6312C15.324 23.5719 15.2619 23.5125 15.1998 23.5125C13.8336 22.6812 11.6602 20.9 10.8529 18.4656C10.6666 19.5344 10.915 21.7906 11.7223 22.9781C11.1013 23.2156 10.294 23.5719 9.7972 23.9281C10.1077 24.2844 10.915 24.9375 11.4118 25.2344C10.9771 25.5906 10.294 26.3031 9.9835 26.7781C10.4182 27.0156 11.2876 27.3719 11.9707 27.55C11.6602 28.025 11.1634 28.9156 11.0392 29.45C11.7844 29.5687 12.5917 29.5687 13.2748 29.5094C13.2127 30.1031 13.2748 30.9344 13.3369 31.4687C14.0199 31.35 14.8272 31.1125 15.324 30.8156C15.4482 31.2312 15.6966 32.0625 15.945 32.4781C16.5039 31.9437 17.2491 31.7062 17.9322 31.7062V32.2406C17.2491 32.2406 16.5039 32.5375 15.7587 33.3687C15.7587 33.3094 15.1998 32.4781 14.9514 31.6469C14.5167 31.825 13.5852 32.1812 12.778 32.2406C12.6538 31.6469 12.5917 30.6969 12.5917 30.1031C11.7223 30.1031 10.915 30.0437 10.294 29.925C10.4182 29.2719 10.7908 28.3812 11.0392 27.8469C10.4803 27.6687 9.48671 27.2531 8.98991 26.9563C9.30041 26.4812 10.0456 25.7094 10.4803 25.2937C9.9835 24.9375 9.17621 24.225 8.80362 23.75C9.36251 23.3344 10.1698 22.9781 10.8529 22.7406C10.3561 21.85 10.1077 20.425 10.1698 19.6531C9.30041 18.8219 8.05843 17.4563 7.62373 15.7938C7.00274 17.8719 7.12694 20.7812 9.17621 22.0875C8.18263 22.0875 6.44385 22.325 5.57446 22.5625C6.19545 23.275 7.74793 24.225 8.67942 24.7C7.93423 24.9375 6.63015 25.65 6.07126 26.125C6.75435 26.5406 8.30682 27.0156 9.05201 27.1937C8.61732 27.55 7.74793 28.5 7.43744 28.975C8.05843 29.1531 9.30041 29.3312 10.1077 29.3312C9.8593 29.8656 9.54881 30.7562 9.48671 31.2906C9.8593 31.35 11.1634 31.2906 11.8465 31.1125C11.7844 31.6469 11.7844 32.5375 11.9086 32.9531C12.5296 32.8937 13.4611 32.5969 13.8957 32.4781C14.0199 32.9531 14.4546 33.9031 14.6409 34.1406C14.9514 34.0812 15.2619 34.0219 15.5724 33.9031C16.4418 33.6062 17.3733 33.9625 17.7459 34.7344C18.3669 36.1 18.1185 37.7031 16.9386 37.4062C15.5724 37.6437 16.5039 39.3062 15.6966 39.8406C16.7523 40.5531 17.0628 38.8906 18.429 39.1875C18.3048 39.7812 18.3048 40.9094 18.429 41.3844C18.8637 41.0875 19.4847 40.85 19.8573 40.7906C19.7331 41.1469 19.671 41.9781 19.7952 42.5125C20.0436 42.3344 21.8444 41.8594 21.8444 41.8594C21.8444 41.8594 21.1613 43.1656 21.596 44.4719C21.8444 44.65 23.459 43.8781 23.459 43.4625C23.5211 43.9969 22.838 45.1844 21.7823 45.4219C22.9001 46.4906 23.8937 46.4312 24.0179 46.4312C24.2042 46.4312 24.3284 46.4312 24.4526 46.3125C24.3905 46.6094 24.3284 47.025 24.3905 47.2625C24.4526 47.2625 24.5147 47.2625 24.5768 47.2625C24.8873 47.2625 25.1357 47.2031 25.322 47.1437C25.3841 47.4406 25.5083 47.7375 25.6946 47.975C25.7567 48.0344 25.7567 48.0344 25.8188 48.0937C26.0672 48.0937 26.6882 47.7969 26.8124 47.6187C26.9366 47.7969 27.5576 48.0937 27.806 48.0937C27.868 48.0344 27.9301 48.0344 27.9301 47.975C28.1785 47.7375 28.3027 47.3812 28.3027 47.1437C28.5511 47.2625 28.7995 47.2625 29.0479 47.2625C29.11 47.2625 29.1721 47.2625 29.2342 47.2625C29.2963 47.025 29.2963 46.6094 29.1721 46.3125C29.2963 46.3719 29.4826 46.4312 29.6068 46.4312C29.731 46.4312 30.7246 46.4906 31.8424 45.4219C30.7867 45.1844 30.1036 43.9969 30.1657 43.4625C30.1657 43.9375 31.7803 44.65 32.0287 44.4719C32.4634 43.1656 31.7803 41.8594 31.7803 41.8594C31.7803 41.8594 33.5191 42.275 33.8296 42.5125C33.9538 41.9781 33.8917 41.1469 33.7675 40.7906C34.1401 40.7906 34.7611 41.0875 35.1957 41.3844C35.3199 40.9094 35.3199 39.8406 35.1957 39.1875C36.4998 38.8906 36.8103 40.5531 37.9281 39.8406C37.1829 39.3062 38.1144 37.6437 36.6861 37.4062C35.5062 37.7625 35.2578 36.1 35.8788 34.7344C36.2514 33.9625 37.245 33.6062 38.0523 33.9031C38.3628 34.0219 38.6733 34.0812 38.9838 34.1406C39.108 33.9031 39.6048 32.9531 39.729 32.4781C40.1637 32.6562 41.0952 32.8937 41.7162 32.9531C41.7783 32.5375 41.8404 31.6469 41.7783 31.1125C42.3992 31.2312 43.7654 31.2906 44.138 31.2906C44.0759 30.6969 43.7654 29.8062 43.517 29.3312C44.3243 29.2719 45.5663 29.1531 46.1873 28.975C45.8768 28.4406 45.0074 27.4906 44.5727 27.1937C45.3179 27.0156 46.8704 26.5406 47.5535 26.125C47.1188 25.5906 45.8147 24.8781 45.0695 24.6406ZM35.0094 38C34.9473 38.1187 34.8853 38.1781 34.8232 38.2969C34.8232 38.3562 34.7611 38.3562 34.7611 38.4156C34.699 38.475 34.6369 38.5344 34.5748 38.6531C34.5127 38.7125 34.5127 38.7125 34.4506 38.7719C34.3885 38.8906 34.2643 38.95 34.2022 39.0688C34.1401 39.1281 34.078 39.1875 34.0159 39.2469C33.9538 39.3062 33.8917 39.3656 33.8296 39.425C33.7675 39.4844 33.7054 39.5437 33.5812 39.6625C33.5191 39.7219 33.5191 39.7219 33.457 39.7812C33.2707 39.9594 33.0223 40.1375 32.7739 40.2562C32.4634 40.4937 32.1529 40.6719 31.7803 40.85C31.6561 40.9094 31.5319 40.9687 31.4077 41.0281C28.6132 42.3937 27.2471 43.4625 26.8124 43.7594H26.7503C26.3156 43.4031 24.9494 42.3937 22.1549 41.0281C22.0307 40.9687 21.9065 40.9094 21.7823 40.85C21.4097 40.6719 21.0992 40.4937 20.7887 40.2562C20.5404 40.0781 20.3541 39.9 20.1057 39.7812C20.0436 39.7219 19.9815 39.7219 19.9815 39.6625C19.9194 39.6031 19.7952 39.5437 19.7331 39.425C19.671 39.3656 19.6089 39.3062 19.5468 39.2469C19.4847 39.1875 19.4226 39.1281 19.3605 39.0688C19.2363 38.95 19.1742 38.8906 19.1121 38.7719C19.05 38.7125 19.05 38.7125 18.9879 38.6531C18.9258 38.5937 18.8637 38.5344 18.8016 38.4156C18.8016 38.3562 18.7395 38.3562 18.7395 38.2969C18.6774 38.1781 18.6153 38.1187 18.5532 38C18.1806 37.2281 18.2427 36.575 18.2427 36.575V26.1844C18.2427 26.0062 18.3669 25.8875 18.5532 25.8875H19.4847H26.8745H34.0159H34.9473C35.1336 25.8875 35.2578 26.0062 35.2578 26.1844V36.575C35.3199 36.575 35.382 37.2281 35.0094 38Z" fill="#13377D"/>
<path d="M34.6369 9.49995C34.8853 9.49995 35.0095 9.32183 35.0095 9.08433C35.0095 8.84683 34.8232 8.6687 34.6369 8.6687C34.3885 8.6687 34.2643 8.84683 34.2643 9.08433C34.2643 9.32183 34.4506 9.49995 34.6369 9.49995Z" fill="#13377D"/>
<path d="M34.6369 11.6969C34.8853 11.6969 35.1337 10.6876 35.1337 10.2125C35.1337 9.91567 34.8853 9.73755 34.6369 9.73755C34.3885 9.73755 34.1401 9.91567 34.1401 10.2125C34.1401 10.6876 34.3885 11.6969 34.6369 11.6969Z" fill="#13377D"/>
<path d="M34.3885 8.07498H34.9473L34.8231 7.42185L35.5062 7.48123V6.94685L34.8231 7.0656L34.9473 6.41248H34.3885L34.4506 7.0656L33.7675 6.94685V7.48123L34.4506 7.42185L34.3885 8.07498Z" fill="#13377D"/>
<path d="M32.215 12.8844C32.4013 12.9438 32.5876 12.9438 32.7739 13.0031H32.836H32.8981C32.9602 13.0031 32.9602 13.0031 32.9602 13.0031H33.0844C33.1465 13.0031 33.2086 13.0031 33.2707 13.0031C33.3328 13.0031 33.3328 13.0031 33.3949 13.0031C33.457 13.0031 33.5191 13.0031 33.5812 13.0031C34.078 13.0031 34.5748 12.8844 35.0716 12.7657C35.5684 12.6469 36.0652 12.5282 36.6241 12.5282H36.6862H36.7483H36.8104H36.8725H36.9346H36.9967C37.1209 11.9938 37.3072 11.4 37.3072 11.0438C37.3072 10.3313 36.8725 9.5594 35.4442 9.3219C35.4442 10.2125 35.0095 12.2907 34.5127 12.2907H34.4506C33.9538 12.2907 33.5191 10.2125 33.5191 9.3219C32.0908 9.5594 31.6561 10.3313 31.6561 11.0438C31.6561 11.4594 31.8424 12.2313 32.0287 12.7657C32.215 12.825 32.215 12.825 32.215 12.8844Z" fill="#13377D"/>
<path d="M39.6669 9.1438C39.6669 9.1438 39.2943 8.1938 39.9153 7.89693C40.5984 7.65943 39.6669 7.77818 40.1637 6.47193C40.7226 4.92818 41.9646 5.28443 41.9646 5.28443C41.0952 4.6313 40.4121 4.69068 39.9153 5.04693C39.6048 5.28443 39.1701 5.75943 38.8596 6.70943C38.6113 7.89693 39.0459 9.02505 39.6669 9.1438Z" fill="#13377D"/>
<path d="M42.8961 6.8281C42.9582 8.78748 46.3737 9.61873 46.3737 9.61873C46.3737 9.61873 44.3865 8.25311 44.7591 7.24373C44.7591 7.24373 46.0632 7.77811 47.5535 7.5406C44.3865 6.88748 45.4422 5.93748 44.6349 5.1656C43.8276 4.33435 42.5856 4.27498 42.2751 4.2156C41.4678 4.15623 41.4057 4.15623 40.4742 4.39373C42.6477 4.4531 42.8961 5.52185 42.8961 6.8281Z" fill="#13377D"/>
<path d="M42.4614 10.5094C42.8961 8.96566 42.0888 8.25316 42.0888 8.25316C41.8404 7.95629 40.5364 8.01566 40.0396 8.31254C40.0396 8.31254 41.2816 8.31254 41.0953 10.0344C40.909 11.7563 38.425 12.1125 37.7419 12.1719L37.6798 12.4094C38.8597 12.4094 41.9646 12.0532 42.4614 10.5094Z" fill="#13377D"/>
<path d="M29.4827 10.45H28.2407C28.8617 12.1125 30.6626 12.6468 31.8425 12.825L31.7804 12.6468C30.5384 12.1718 29.9174 11.6968 29.4827 10.45Z" fill="#13377D"/>
<path d="M19.1742 9.49995C19.4226 9.49995 19.5468 9.32183 19.5468 9.08433C19.5468 8.84683 19.3605 8.6687 19.1742 8.6687C18.9258 8.6687 18.8016 8.84683 18.8016 9.08433C18.7395 9.32183 18.9258 9.49995 19.1742 9.49995Z" fill="#13377D"/>
<path d="M19.1742 11.6969C19.4226 11.6969 19.671 10.6876 19.671 10.2125C19.671 9.91567 19.4226 9.73755 19.1742 9.73755C18.9258 9.73755 18.6774 9.91567 18.6774 10.2125C18.6774 10.6876 18.8637 11.6969 19.1742 11.6969Z" fill="#13377D"/>
<path d="M18.8637 8.07498H19.4226L19.3605 7.42185L20.0436 7.48123V6.94685L19.3605 7.0656L19.4226 6.41248H18.8637L18.9879 7.0656L18.3048 6.94685V7.48123L18.9879 7.42185L18.8637 8.07498Z" fill="#13377D"/>
<path d="M16.6902 12.5281H16.7523H16.8144H16.9386C17.0007 12.5281 17.0007 12.5281 17.0007 12.5281H17.0628C17.6217 12.5875 18.1806 12.6468 18.6153 12.7656C19.05 12.8843 19.6088 13.0031 20.1056 13.0031C20.1677 13.0031 20.2298 13.0031 20.2919 13.0031C20.354 13.0031 20.354 13.0031 20.4161 13.0031C20.4782 13.0031 20.5403 13.0031 20.6024 13.0031H20.7266H20.7887H20.8508H20.9129C21.0992 13.0031 21.2855 12.9437 21.4718 12.8844C21.4718 12.825 21.4718 12.825 21.5339 12.825C21.7202 12.2906 21.9065 11.5187 21.9065 11.1031C21.9065 10.3906 21.5339 9.61873 20.0435 9.38123C20.0435 10.2125 19.6088 12.35 19.1121 12.35H19.05C18.5532 12.35 18.1185 10.2719 18.1185 9.38123C16.6902 9.61873 16.2555 10.3906 16.2555 11.1031C16.2555 11.4594 16.3797 12.0531 16.566 12.5875C16.6281 12.5281 16.6281 12.5281 16.6902 12.5281Z" fill="#13377D"/>
<path d="M11.7844 5.2843C11.7844 5.2843 13.0264 4.92805 13.5853 6.4718C14.0821 7.77805 13.1506 7.6593 13.8337 7.8968C14.5168 8.1343 14.0821 9.14368 14.0821 9.14368C14.7652 9.02493 15.1999 7.8968 14.8273 6.64993C14.5168 5.69993 14.0821 5.22493 13.7716 4.98743C13.2748 4.69055 12.6538 4.63118 11.7844 5.2843Z" fill="#13377D"/>
<path d="M8.98998 7.2437C9.36258 8.25308 7.3754 9.6187 7.3754 9.6187C7.3754 9.6187 10.853 8.78745 10.853 6.82808C10.9151 5.52183 11.1014 4.45308 13.2127 4.3937C12.2812 4.21558 12.2191 4.21558 11.4118 4.21558C11.1014 4.21558 9.85937 4.33433 9.05208 5.16558C8.30689 5.93745 9.30048 6.88745 6.13342 7.54058C7.6859 7.77808 8.98998 7.2437 8.98998 7.2437Z" fill="#13377D"/>
<path d="M12.7159 10.0344C12.5296 8.31248 13.7716 8.31249 13.7716 8.31249C13.3369 8.01561 12.0328 8.01561 11.7223 8.25311C11.7223 8.25311 10.915 8.90624 11.3497 10.5094C11.7844 12.0531 14.9515 12.4094 16.1314 12.4094L16.0693 12.1719C15.3862 12.1125 12.9022 11.7562 12.7159 10.0344Z" fill="#13377D"/>
<path d="M25.5704 10.45H24.3284C23.8937 11.6968 23.2727 12.1718 22.0307 12.6468L21.9686 12.825C23.2106 12.6468 24.9494 12.1125 25.5704 10.45Z" fill="#13377D"/>
<path d="M28.4891 17.7532C28.1165 18.2875 27.806 18.8813 27.5576 19.475C27.7439 19.2375 28.0544 19.0001 28.3649 18.7626C28.9238 18.4063 29.4206 18.1688 29.4206 18.1688L29.9174 17.9907L29.7932 18.4657C29.7932 18.4657 29.6069 19.2375 29.669 19.8907C29.669 20.1876 29.7932 20.4844 29.8553 20.6625C29.9795 20.3657 30.1658 20.0688 30.3521 19.7719C30.9731 19 31.4699 18.7032 31.4699 18.7032L31.8425 18.5251V18.9407C31.8425 18.9407 31.9667 20.3063 32.2772 21.0188C32.836 22.2063 33.8917 22.8594 34.5127 23.1563C34.4506 23.0969 34.3264 22.9782 34.2022 22.8594C33.8917 22.5626 33.5812 22.0282 33.3949 20.9001C33.2707 19.9501 33.6433 19.0001 33.7675 18.7032C33.8296 18.9407 33.9538 19.1782 34.078 19.2376C34.078 19.2376 34.078 19.0001 34.1401 18.7626C34.2643 18.1094 35.0095 17.1 36.0031 16.5063C36.1894 16.3875 36.3757 16.2688 36.4999 16.2094C36.6862 16.15 36.8104 16.0313 36.9346 15.9125C36.7483 15.9125 36.4999 15.9719 36.3136 15.9719H36.2515C36.1273 15.9719 35.941 15.9719 35.6926 15.9719C35.1958 15.9719 34.6369 15.9125 34.2022 15.5563C33.7675 15.2 33.5812 14.8438 33.5191 14.6063C33.3328 14.6063 33.0844 14.6063 32.7739 14.6063C32.4013 14.6063 32.0909 14.4875 31.9046 14.4875C31.4078 14.7844 30.911 14.9032 30.29 14.9625C30.2279 14.9625 30.1037 14.9625 30.0416 14.9625C30.2279 15.1407 30.4763 15.2594 30.6626 15.3782C30.6626 15.3782 30.6626 15.3782 30.7247 15.3782L30.6005 15.4375C30.6626 15.3782 29.7932 15.8532 28.4891 17.7532Z" fill="#13377D"/>
<path d="M36.624 14.4281C36.3756 14.4281 36.1893 14.4281 35.9409 14.4281C35.9409 14.5469 35.9409 14.6656 35.9409 14.7844C36.003 14.9625 36.0651 15.0812 36.1893 15.2C36.3756 15.0812 36.5619 14.7844 36.624 14.4281Z" fill="#13377D"/>
<path d="M37.1208 13.0625C37.0587 13.0625 37.0587 13.0625 37.1208 13.0625H37.0587C37.0587 13.0625 37.0587 13.0625 36.9966 13.0625C36.9345 13.0625 36.9345 13.0625 36.8724 13.0625C36.3756 13.0625 35.8788 13.1813 35.382 13.3C34.8853 13.4188 34.3264 13.5375 33.8296 13.5375C33.7054 13.5375 33.6433 13.5375 33.5191 13.5375C33.457 13.5375 33.3949 13.5375 33.3328 13.5375C33.2707 13.5375 33.2707 13.5375 33.2086 13.5375C33.1465 13.5375 33.1465 13.5375 33.0844 13.5375C33.0844 13.5375 33.0844 13.5375 33.0223 13.5375C33.0223 13.5375 33.0223 13.5375 32.9602 13.5375C31.8424 13.4188 31.0972 13.0625 30.7246 12.8844C30.7867 13.0031 30.9109 13.1219 31.0972 13.3C31.1593 13.3594 31.2214 13.4188 31.2835 13.4781C31.4077 13.5969 31.594 13.7156 31.7803 13.8344C32.0287 13.9531 33.0844 14.3688 34.4506 14.1906C36.003 13.9531 36.3135 14.0125 36.6861 14.0125H36.8103C37.3692 14.0719 38.1765 14.3688 38.487 14.5469C38.6112 14.25 38.7975 13.9531 38.8596 13.6563C38.7975 13.5969 38.6733 13.4781 38.4249 13.3594C38.3628 13.3 38.3007 13.3 38.1765 13.2406C38.0523 13.1813 37.866 13.1219 37.6176 13.1219C37.3692 13.0625 37.245 13.0625 37.1208 13.0625Z" fill="#13377D"/>
<path d="M41.4678 17.9312C41.4057 17.9312 40.8468 18.2281 39.667 17.5156C38.4871 16.8031 37.6177 16.5062 37.1209 16.3875C36.9967 16.4468 36.9346 16.5062 36.8104 16.5656C36.6862 16.625 36.4999 16.7437 36.3136 16.8625C36.2515 16.9218 36.1894 16.9218 36.1273 16.9812C36.1273 16.9812 36.1894 16.9812 36.2515 16.9812C37.3693 17.1 38.2387 17.6937 38.3008 17.9312H38.3629C38.4871 17.575 38.3008 17.2781 38.3008 17.2781C38.3008 17.2781 38.7976 17.575 39.7912 18.1093C40.8469 18.7625 41.2815 18.1687 41.4678 17.9312Z" fill="#13377D"/>
<path d="M35.5684 15.0219C35.5063 14.9625 35.4442 14.8438 35.3821 14.7844C35.32 14.6656 35.32 14.6063 35.32 14.5469C35.0716 14.5469 34.7611 14.6063 34.3885 14.6656C34.3264 14.6656 34.2022 14.6656 34.1401 14.6656C34.3264 15.0219 34.6369 15.3781 35.2579 15.4969C35.32 15.4969 35.32 15.4969 35.3821 15.4969C35.4442 15.4969 35.4442 15.4969 35.5063 15.4969C35.7547 15.5563 36.0652 15.5563 36.2515 15.5563C36.6862 15.5563 37.183 15.4969 37.6798 15.3781C37.804 15.2594 37.8661 15.0813 37.9903 14.9625C37.9903 14.9625 37.9282 14.9031 37.8661 14.9031C37.7419 14.8438 37.4314 14.6656 37.2451 14.6063C37.183 14.7844 37.0588 14.9625 36.9346 15.0813C36.7483 15.2 36.4999 15.2594 36.2515 15.2594C36.0031 15.2594 35.7547 15.2 35.6305 15.0813C35.5684 15.0813 35.5684 15.0219 35.5684 15.0219Z" fill="#13377D"/>
<path d="M38.8597 14.1313C38.4871 15.0813 37.8661 15.7938 37.4314 16.1501C40.2259 15.4376 40.7227 16.8032 40.7227 16.8626C40.7227 16.922 40.7227 16.922 40.7848 16.8626C40.8469 16.8032 41.7783 15.8532 41.0952 14.9626C40.5364 14.2501 39.2944 14.1313 38.8597 14.1313ZM38.8597 14.8438C38.9839 14.7251 39.046 14.4876 39.046 14.4876C39.2323 14.4876 39.6049 14.547 39.6049 14.7845C39.3565 14.7251 39.046 14.7251 38.8597 14.8438Z" fill="#13377D"/>
<path d="M17.8701 14.7844C17.8701 14.6656 17.8701 14.5469 17.8701 14.4281C17.6217 14.4281 17.3733 14.4281 17.187 14.4281C17.2491 14.7844 17.4354 15.0812 17.6217 15.2C17.7459 15.0812 17.808 14.9625 17.8701 14.7844Z" fill="#13377D"/>
<path d="M21.0372 13.4781C20.9751 13.4781 20.9751 13.4781 21.0372 13.4781C20.9751 13.4781 20.9751 13.4781 20.9751 13.4781C20.9751 13.4781 20.9751 13.4781 20.913 13.4781C20.8509 13.4781 20.8509 13.4781 20.7888 13.4781C20.7267 13.4781 20.7267 13.4781 20.6646 13.4781C20.6025 13.4781 20.5404 13.4781 20.4783 13.4781C20.3541 13.4781 20.292 13.4781 20.1678 13.4781C19.6089 13.4781 19.1121 13.3593 18.6154 13.2406C18.0565 13.1812 17.5597 13.0625 17.0629 13.0625C17.0008 13.0625 17.0008 13.0625 16.9387 13.0625C16.9387 13.0625 16.9387 13.0625 16.8766 13.0625C16.7524 13.0625 16.6282 13.0625 16.5661 13.0625C16.3177 13.0625 16.1314 13.1218 16.0072 13.1812C15.9451 13.2406 15.8209 13.2406 15.7588 13.3C15.5725 13.4187 15.4483 13.4781 15.3241 13.5968C15.3862 13.8937 15.5725 14.2499 15.6967 14.4874C16.0072 14.3093 16.8145 13.9531 17.3734 13.9531H17.4976C17.8702 13.9531 18.1807 13.8937 19.7331 14.1312C21.0993 14.3093 22.0929 13.8937 22.4034 13.775C22.5897 13.6562 22.776 13.5375 22.9002 13.4187C22.9623 13.3593 23.0244 13.2999 23.0865 13.2406C23.2107 13.0625 23.3349 12.9437 23.4591 12.825C22.9002 13.0031 22.155 13.3593 21.0372 13.4781Z" fill="#13377D"/>
<path d="M12.3433 17.9312C12.5296 18.1093 12.9643 18.7625 13.9578 18.2281C14.9514 17.6937 15.4482 17.3968 15.4482 17.3968C15.4482 17.3968 15.2619 17.6937 15.3861 18.05C15.3861 18.05 15.3861 18.05 15.4482 18.05C15.5724 17.8125 16.4418 17.1593 17.4975 17.1C17.5596 17.1 17.5596 17.1 17.6217 17.1C17.5596 17.0406 17.4975 17.0406 17.4354 16.9812C17.2491 16.8625 17.0628 16.7437 16.9386 16.6844C16.8144 16.625 16.7523 16.5656 16.6281 16.5062C16.1313 16.5656 15.2619 16.9219 14.082 17.6344C12.9643 18.2281 12.4054 17.9312 12.3433 17.9312Z" fill="#13377D"/>
<path d="M16.566 14.6063C16.4418 14.6656 16.0692 14.8438 15.945 14.9031C15.8829 14.9031 15.8829 14.9625 15.8208 14.9625C15.945 15.1406 16.0071 15.2594 16.1313 15.3781C16.6281 15.4969 17.1249 15.5563 17.5596 15.5563C17.808 15.5563 18.0564 15.5563 18.3048 15.4969C18.3669 15.4969 18.3669 15.4969 18.429 15.4969C18.4911 15.4969 18.4911 15.4969 18.5532 15.4969C19.1742 15.3781 19.5467 14.9625 19.6709 14.6656C19.6088 14.6656 19.4846 14.6656 19.4225 14.6656C19.05 14.6063 18.7395 14.5469 18.4911 14.5469C18.4911 14.6063 18.429 14.725 18.429 14.7844C18.3669 14.9031 18.3048 14.9625 18.2427 15.0219L18.1806 15.0813C17.9943 15.2 17.808 15.2594 17.5596 15.2594C17.3112 15.2594 17.0628 15.2 16.8765 15.0813C16.6902 14.9625 16.6281 14.7844 16.566 14.6063Z" fill="#13377D"/>
<path d="M12.6538 14.9626C11.9707 15.8532 12.9022 16.8032 12.9643 16.8626C13.0264 16.922 13.0264 16.8626 13.0264 16.8626C13.0264 16.8032 13.5232 15.4376 16.3176 16.1501C15.8829 15.7938 15.262 15.0813 14.8894 14.1313C14.5168 14.1313 13.2127 14.2501 12.6538 14.9626ZM14.9515 14.8438C14.7652 14.7251 14.4547 14.7251 14.2063 14.7845C14.2063 14.547 14.5789 14.4876 14.7652 14.4876C14.7652 14.4876 14.8273 14.7251 14.9515 14.8438Z" fill="#13377D"/>
<path d="M23.7075 14.9625C23.6454 14.9625 23.5212 14.9625 23.4591 14.9625C22.8381 14.9625 22.3413 14.7844 21.8445 14.4875C21.6582 14.5469 21.2856 14.6063 20.9751 14.6063C20.6646 14.6063 20.3541 14.6063 20.2299 14.6063C20.1678 14.8438 19.9815 15.2594 19.5468 15.5563C19.1121 15.9125 18.5532 15.9719 18.0564 15.9719C17.808 15.9719 17.6217 15.9719 17.4975 15.9719H17.4354C17.3112 15.9719 17.0628 15.9125 16.8145 15.9125C17.0008 16.0313 17.1249 16.0907 17.2491 16.2094C17.3733 16.2688 17.5596 16.3875 17.7459 16.5063C18.7395 17.1594 19.4847 18.1094 19.6089 18.7626C19.671 19.0001 19.671 19.2376 19.671 19.2376C19.7952 19.1782 19.9194 18.9407 19.9815 18.7032C20.1057 19.0001 20.5404 19.9501 20.3541 20.9001C20.1678 22.0282 19.8573 22.5626 19.5468 22.8594C19.4226 22.9782 19.2984 23.0969 19.2363 23.1563C19.8573 22.8594 20.913 22.2063 21.4719 21.0188C21.7824 20.3657 21.9066 19.0001 21.9066 19.0001V18.5844L22.2792 18.7626C22.2792 18.7626 22.8381 19.0594 23.397 19.8313C23.5833 20.1282 23.7696 20.4251 23.8938 20.7219C23.9559 20.4844 24.018 20.2469 24.0801 19.95C24.1421 19.2375 23.9559 18.5251 23.9559 18.5251L23.8317 18.05L24.3284 18.2282C24.3284 18.2282 24.8252 18.4063 25.3841 18.8219C25.7567 19.0594 26.0051 19.2969 26.1914 19.5344C25.943 18.9407 25.6946 18.3469 25.2599 17.8125C23.9559 15.9125 23.1486 15.4969 23.1486 15.4969L23.0244 15.4375C23.0244 15.4375 23.0244 15.4375 23.0865 15.4375C23.2728 15.2594 23.5212 15.0813 23.7075 14.9625Z" fill="#13377D"/>
</svg>
