<svg width="170" height="53" viewBox="0 0 170 53" fill="none" xmlns="http://www.w3.org/2000/svg">
<path d="M11.4454 33.0016H3.72071V47.5273H0.171875V30.0917H11.4454V33.0016Z" fill="#F0D000"/>
<path d="M22.9199 41.1685C22.9199 43.1644 22.4704 44.765 21.5714 45.9705C20.6802 47.168 19.4736 47.7668 17.9516 47.7668C16.6582 47.7668 15.6133 47.3117 14.8167 46.4016V52.5089H11.398V34.5703H14.5683L14.6866 35.8397C15.5147 34.8338 16.5951 34.3308 17.9279 34.3308C19.5052 34.3308 20.7315 34.9216 21.6069 36.1031C22.4822 37.2847 22.9199 38.9132 22.9199 40.9889V41.1685ZM19.5012 40.9171C19.5012 39.7116 19.2883 38.7815 18.8624 38.1269C18.4445 37.4723 17.8333 37.1449 17.0289 37.1449C15.9563 37.1449 15.219 37.5601 14.8167 38.3903V43.6953C15.2347 44.5495 15.98 44.9766 17.0525 44.9766C18.685 44.9766 19.5012 43.6234 19.5012 40.9171Z" fill="#F0D000"/>
<path d="M32.4663 47.5273C32.3086 47.2159 32.1942 46.8287 32.1233 46.3657C31.2952 47.2997 30.2187 47.7668 28.8938 47.7668C27.6399 47.7668 26.5989 47.3995 25.7708 46.6651C24.9507 45.9306 24.5406 45.0045 24.5406 43.8869C24.5406 42.5137 25.0413 41.4599 26.0429 40.7255C27.0524 39.991 28.5074 39.6198 30.408 39.6118H31.9813V38.8693C31.9813 38.2706 31.8275 37.7916 31.5199 37.4323C31.2203 37.0731 30.7431 36.8935 30.0886 36.8935C29.5129 36.8935 29.0594 37.0332 28.7282 37.3126C28.4049 37.592 28.2432 37.9752 28.2432 38.4622H24.8245C24.8245 37.7118 25.0532 37.0172 25.5106 36.3785C25.968 35.7399 26.6147 35.2409 27.4506 34.8817C28.2866 34.5144 29.225 34.3308 30.266 34.3308C31.8433 34.3308 33.0933 34.734 34.016 35.5403C34.9465 36.3386 35.4118 37.4643 35.4118 38.9172V44.5335C35.4197 45.7629 35.5893 46.693 35.9205 47.3237V47.5273H32.4663ZM29.6391 45.1203C30.1438 45.1203 30.6091 45.0085 31.0349 44.785C31.4608 44.5535 31.7763 44.2461 31.9813 43.8629V41.6356H30.7037C28.9924 41.6356 28.0815 42.2343 27.9711 43.4318L27.9593 43.6354C27.9593 44.0665 28.1091 44.4217 28.4088 44.7012C28.7085 44.9806 29.1186 45.1203 29.6391 45.1203Z" fill="#F0D000"/>
<path d="M49.134 47.5273H45.7035V42.5457H41.4567V47.5273H38.038V34.5703H41.4567V39.7675H45.7035V34.5703H49.134V47.5273Z" fill="#F0D000"/>
<path d="M62.4067 37.3485H58.3018V47.5273H54.8713V37.3485H50.8375V34.5703H62.4067V37.3485Z" fill="#F0D000"/>
<path d="M67.7891 38.3664H70.2378C71.3419 38.3664 72.3119 38.554 73.1478 38.9292C73.9838 39.3044 74.6226 39.8433 75.0642 40.5458C75.5137 41.2404 75.7385 42.0507 75.7385 42.9768C75.7385 44.3419 75.2377 45.4436 74.2361 46.2819C73.2425 47.1121 71.886 47.5273 70.1668 47.5273H64.3585V34.5703H67.7891V38.3664ZM81.18 47.5273H77.7613V34.5703H81.18V47.5273ZM67.7891 41.1446V44.761H70.2141C70.8923 44.761 71.4128 44.6014 71.7756 44.282C72.1384 43.9627 72.3198 43.5276 72.3198 42.9768C72.3198 42.4179 72.1423 41.9749 71.7874 41.6475C71.4326 41.3122 70.9081 41.1446 70.2141 41.1446H67.7891Z" fill="#F0D000"/>
<path d="M94.0032 41.3841V47.5273H90.4543V30.0917H97.1735C98.4668 30.0917 99.6024 30.3312 100.58 30.8102C101.566 31.2892 102.323 31.9717 102.852 32.8579C103.38 33.7361 103.644 34.738 103.644 35.8636C103.644 37.5721 103.065 38.9212 101.905 39.9112C100.754 40.8931 99.1569 41.3841 97.1143 41.3841H94.0032ZM94.0032 38.4742H97.1735C98.1119 38.4742 98.8256 38.2506 99.3146 37.8036C99.8114 37.3565 100.06 36.7178 100.06 35.8876C100.06 35.0334 99.8114 34.3428 99.3146 33.8159C98.8178 33.289 98.1316 33.0176 97.2563 33.0016H94.0032V38.4742Z" fill="#F0D000"/>
<path d="M105.17 40.929C105.17 39.6437 105.415 38.4981 105.904 37.4922C106.393 36.4863 107.094 35.7079 108.009 35.1571C108.932 34.6062 110.001 34.3308 111.215 34.3308C112.942 34.3308 114.35 34.8657 115.438 35.9355C116.534 37.0052 117.146 38.4582 117.272 40.2944L117.295 41.1805C117.295 43.1684 116.747 44.765 115.651 45.9705C114.555 47.168 113.084 47.7668 111.239 47.7668C109.393 47.7668 107.919 47.168 106.814 45.9705C105.718 44.773 105.17 43.1444 105.17 41.0847V40.929ZM108.589 41.1805C108.589 42.4099 108.818 43.352 109.275 44.0066C109.732 44.6533 110.387 44.9766 111.239 44.9766C112.067 44.9766 112.713 44.6573 113.179 44.0186C113.644 43.3719 113.877 42.3421 113.877 40.929C113.877 39.7236 113.644 38.7895 113.179 38.1269C112.713 37.4643 112.059 37.133 111.215 37.133C110.379 37.133 109.732 37.4643 109.275 38.1269C108.818 38.7815 108.589 39.7994 108.589 41.1805Z" fill="#F0D000"/>
<path d="M124.724 44.9766C125.355 44.9766 125.868 44.801 126.262 44.4497C126.656 44.0984 126.861 43.6314 126.877 43.0486H130.083C130.075 43.9268 129.839 44.7331 129.373 45.4676C128.908 46.194 128.269 46.7609 127.457 47.168C126.652 47.5672 125.761 47.7668 124.783 47.7668C122.954 47.7668 121.511 47.18 120.454 46.0064C119.397 44.8249 118.869 43.1963 118.869 41.1206V40.8931C118.869 38.8973 119.393 37.3046 120.442 36.1151C121.491 34.9256 122.93 34.3308 124.76 34.3308C126.361 34.3308 127.642 34.7939 128.604 35.7199C129.574 36.638 130.067 37.8634 130.083 39.3962H126.877C126.861 38.7256 126.656 38.1828 126.262 37.7676C125.868 37.3445 125.347 37.133 124.701 37.133C123.904 37.133 123.301 37.4284 122.891 38.0191C122.489 38.6019 122.287 39.5519 122.287 40.8692V41.2284C122.287 42.5616 122.489 43.5196 122.891 44.1024C123.293 44.6852 123.904 44.9766 124.724 44.9766Z" fill="#F0D000"/>
<path d="M137.358 44.9766C137.989 44.9766 138.502 44.801 138.896 44.4497C139.29 44.0984 139.495 43.6314 139.511 43.0486H142.717C142.709 43.9268 142.472 44.7331 142.007 45.4676C141.542 46.194 140.903 46.7609 140.091 47.168C139.286 47.5672 138.395 47.7668 137.417 47.7668C135.588 47.7668 134.144 47.18 133.088 46.0064C132.031 44.8249 131.503 43.1963 131.503 41.1206V40.8931C131.503 38.8973 132.027 37.3046 133.076 36.1151C134.125 34.9256 135.564 34.3308 137.394 34.3308C138.995 34.3308 140.276 34.7939 141.238 35.7199C142.208 36.638 142.701 37.8634 142.717 39.3962H139.511C139.495 38.7256 139.29 38.1828 138.896 37.7676C138.502 37.3445 137.981 37.133 137.334 37.133C136.538 37.133 135.935 37.4284 135.525 38.0191C135.122 38.6019 134.921 39.5519 134.921 40.8692V41.2284C134.921 42.5616 135.122 43.5196 135.525 44.1024C135.927 44.6852 136.538 44.9766 137.358 44.9766Z" fill="#F0D000"/>
<path d="M152.382 34.5703H155.8V47.5273H152.382V39.528L148.099 47.5273H144.669V34.5703H148.099V42.5576L152.382 34.5703Z" fill="#F0D000"/>
<path d="M166.127 34.5703H169.546V47.5273H166.127V39.528L161.845 47.5273H158.415V34.5703H161.845V42.5576L166.127 34.5703Z" fill="#F0D000"/>
<path d="M5.75165 9.69955H3.67254V17.4443H1.41724V0.202148H3.67254V7.8048H5.4345L11.4134 0.202148H14.2208L7.6898 8.5627L14.7024 17.4443H11.942L5.75165 9.69955Z" fill="#333333"/>
<path d="M20.1175 14.2351L23.0776 4.63111H25.4033L20.2937 19.4219C19.5027 21.5535 18.2459 22.6193 16.5231 22.6193L16.112 22.5838L15.3015 22.4299V20.6535L15.8888 20.7009C16.6249 20.7009 17.1965 20.5509 17.6037 20.2509C18.0188 19.9509 18.3594 19.4022 18.6257 18.6048L19.1073 17.3022L14.5732 4.63111H16.9459L20.1175 14.2351Z" fill="#333333"/>
<path d="M37.2789 4.63111V17.4443H35.0941V6.44296H30.7714L30.513 11.239C30.3721 13.4417 30.004 15.0167 29.4088 15.964C28.8215 16.9114 27.8857 17.4048 26.6015 17.4443H25.7322V15.514L26.3548 15.4667C27.0596 15.3877 27.5647 14.9772 27.8701 14.2351C28.1755 13.493 28.3713 12.1193 28.4574 10.114L28.6923 4.63111H37.2789Z" fill="#333333"/>
<path d="M43.1404 9.04823H46.4411C47.882 9.06402 49.0214 9.44297 49.8593 10.1851C50.6972 10.9272 51.1161 11.9338 51.1161 13.2048C51.1161 14.4838 50.6854 15.5101 49.824 16.2838C48.9626 17.0575 47.8037 17.4443 46.3471 17.4443H40.9673V4.63111H43.1404V9.04823ZM43.1404 10.8364V15.6561H46.3706C47.185 15.6561 47.8154 15.4469 48.2618 15.0285C48.7081 14.6022 48.9313 14.0219 48.9313 13.2877C48.9313 12.5772 48.7121 11.9969 48.2735 11.5469C47.8428 11.089 47.2359 10.8522 46.4528 10.8364H43.1404Z" fill="#333333"/>
<path d="M62.4514 6.40743H58.1875V17.4443H56.0144V6.40743H51.8327V4.63111H62.4514V6.40743Z" fill="#333333"/>
<path d="M68.8649 14.2351L71.825 4.63111H74.1508L69.0411 19.4219C68.2502 21.5535 66.9933 22.6193 65.2705 22.6193L64.8594 22.5838L64.0489 22.4299V20.6535L64.6362 20.7009C65.3723 20.7009 65.944 20.5509 66.3512 20.2509C66.7662 19.9509 67.1069 19.4022 67.3731 18.6048L67.8547 17.3022L63.3206 4.63111H65.6934L68.8649 14.2351Z" fill="#333333"/>
<path d="M86.8369 11.1798C86.8369 13.1298 86.3944 14.7009 85.5095 15.893C84.6246 17.0851 83.4265 17.6812 81.9151 17.6812C80.3725 17.6812 79.1587 17.1877 78.2738 16.2009V22.3706H76.1007V4.63111H78.0858L78.1915 6.05217C79.0764 4.9469 80.3059 4.39427 81.8799 4.39427C83.4069 4.39427 84.6129 4.97453 85.4978 6.13506C86.3905 7.29559 86.8369 8.91007 86.8369 10.9785V11.1798ZM84.6638 10.9311C84.6638 9.48639 84.3584 8.3456 83.7476 7.50875C83.1368 6.67191 82.2989 6.25348 81.2339 6.25348C79.9183 6.25348 78.9316 6.84164 78.2738 8.01796V14.1404C78.9237 15.3088 79.9183 15.893 81.2573 15.893C82.2989 15.893 83.125 15.4785 83.7358 14.6496C84.3545 13.8127 84.6638 12.5732 84.6638 10.9311Z" fill="#333333"/>
<path d="M97.4556 17.4443C97.3303 17.1917 97.2285 16.7417 97.1502 16.0943C96.14 17.1522 94.934 17.6812 93.5323 17.6812C92.2794 17.6812 91.2496 17.3259 90.443 16.6154C89.6443 15.8969 89.2449 14.989 89.2449 13.8917C89.2449 12.5575 89.7461 11.5232 90.7484 10.789C91.7586 10.0469 93.176 9.67586 95.0006 9.67586H97.115V8.66928C97.115 7.90349 96.8879 7.29559 96.4337 6.84559C95.9795 6.38769 95.3099 6.15875 94.425 6.15875C93.6498 6.15875 92.9998 6.35612 92.4751 6.75085C91.9505 7.14559 91.6881 7.62323 91.6881 8.18375H89.5033C89.5033 7.54428 89.7265 6.92849 90.1728 6.33638C90.627 5.73638 91.2378 5.26269 92.0053 4.91532C92.7805 4.56795 93.6302 4.39427 94.5542 4.39427C96.0186 4.39427 97.1659 4.76532 97.9959 5.50743C98.826 6.24164 99.2567 7.25612 99.288 8.55086V14.4482C99.288 15.6246 99.4368 16.5601 99.7344 17.2548V17.4443H97.4556ZM93.8495 15.7746C94.5307 15.7746 95.1768 15.5969 95.7876 15.2417C96.3984 14.8864 96.8409 14.4246 97.115 13.8561V11.2272H95.4117C92.7492 11.2272 91.418 12.0127 91.418 13.5838C91.418 14.2706 91.6451 14.8075 92.0993 15.1943C92.5534 15.5811 93.1368 15.7746 93.8495 15.7746Z" fill="#333333"/>
<path d="M102.084 16.2956C102.084 15.9167 102.193 15.6009 102.413 15.3483C102.64 15.0956 102.976 14.9693 103.423 14.9693C103.869 14.9693 104.206 15.0956 104.433 15.3483C104.668 15.6009 104.785 15.9167 104.785 16.2956C104.785 16.6588 104.668 16.9627 104.433 17.2075C104.206 17.4522 103.869 17.5746 103.423 17.5746C102.976 17.5746 102.64 17.4522 102.413 17.2075C102.193 16.9627 102.084 16.6588 102.084 16.2956Z" fill="#333333"/>
</svg>
