<svg width="17" height="10" viewBox="0 0 17 10" fill="none" xmlns="http://www.w3.org/2000/svg">
<path d="M15.9332 0.643563C16.045 0.272277 15.9332 0 15.4046 0H13.6536C13.208 0 13.0044 0.235548 12.8926 0.49425C12.8926 0.49425 12.0024 2.66528 10.7408 4.07297C10.3336 4.48258 10.1475 4.61193 9.92555 4.61193C9.81456 4.61193 9.65327 4.48258 9.65327 4.1113V0.643563C9.65327 0.19802 9.52472 0 9.15343 0H6.40192C6.12405 0 5.95638 0.206004 5.95638 0.402427C5.95638 0.824016 6.58716 0.921429 6.65184 2.10955V4.68699C6.65184 5.25151 6.55043 5.35451 6.32686 5.35451C5.7336 5.35451 4.28998 3.1755 3.43323 0.681091C3.26635 0.196423 3.09787 0.000798788 2.65073 0.000798788H0.900495C0.399857 0.000798788 0.300049 0.236346 0.300049 0.495049C0.300049 0.959755 0.893309 3.25933 3.06354 6.30069C4.51036 8.3775 6.54724 9.50333 8.40287 9.50333C9.51514 9.50333 9.65247 9.25341 9.65247 8.82224V7.25246C9.65247 6.75262 9.75867 6.65201 10.1108 6.65201C10.3695 6.65201 10.815 6.78296 11.8538 7.78344C13.0404 8.96996 13.2368 9.50253 13.9035 9.50253H15.6537C16.1536 9.50253 16.4035 9.25261 16.2598 8.75916C16.1025 8.26811 15.5356 7.55348 14.7834 6.70791C14.3746 6.22563 13.7638 5.70663 13.5777 5.44713C13.3182 5.11257 13.3933 4.96486 13.5777 4.66783C13.5785 4.66863 15.7112 1.6648 15.9332 0.643563Z" />
</svg>
